<svg xmlns="http://www.w3.org/2000/svg" xmlns:xlink="http://www.w3.org/1999/xlink" width="200" zoomAndPan="magnify" viewBox="0 0 150 149.999998" height="200" preserveAspectRatio="xMidYMid meet" version="1.0"><defs><clipPath id="c191ab8024"><path d="M 17.214844 17.425781 L 132.714844 17.425781 L 132.714844 132.925781 L 17.214844 132.925781 Z M 17.214844 17.425781 " clip-rule="nonzero"/></clipPath></defs><g clip-path="url(#c191ab8024)"><path fill="#000000" d="M 74.988281 17.464844 C 43.074219 17.464844 17.214844 43.417969 17.214844 75.449219 C 17.214844 104.21875 38.121094 128.113281 65.484375 132.632812 L 65.484375 93.324219 L 50.777344 93.324219 L 50.777344 76.101562 L 65.484375 76.101562 L 65.484375 63.601562 C 65.484375 50.046875 76.441406 40.859375 89.945312 40.859375 C 95.949219 40.859375 99.699219 41.761719 99.699219 41.761719 L 99.699219 56.222656 L 89.945312 56.222656 C 85.894531 56.222656 82.59375 59.535156 82.59375 63.601562 L 82.59375 76.101562 L 98.347656 76.101562 L 96.148438 93.324219 L 82.59375 93.324219 L 82.59375 132.882812 C 110.855469 129.121094 132.664062 104.820312 132.664062 75.449219 C 132.714844 43.417969 106.851562 17.464844 74.988281 17.464844 Z M 74.988281 17.464844 " fill-opacity="1" fill-rule="nonzero"/></g></svg>