<svg xmlns="http://www.w3.org/2000/svg" xmlns:xlink="http://www.w3.org/1999/xlink" width="196" zoomAndPan="magnify" viewBox="0 0 147 147.000002" height="196" preserveAspectRatio="xMidYMid meet" version="1.0"><defs><clipPath id="833eb07f0b"><path d="M 14 2 L 130 2 L 130 144.117188 L 14 144.117188 Z M 14 2 " clip-rule="nonzero"/></clipPath></defs><path fill="#c7985d" d="M 88.648438 21.726562 L 82.253906 18.746094 L 88.105469 6.207031 C 88.929688 4.445312 91.027344 3.679688 92.796875 4.503906 C 94.558594 5.328125 95.324219 7.421875 94.5 9.191406 Z M 47.585938 109.738281 L 41.191406 106.757812 L 35.339844 119.300781 C 34.511719 121.0625 35.277344 123.164062 37.042969 123.988281 C 38.808594 124.8125 40.910156 124.046875 41.734375 122.285156 Z M 67.765625 125.992188 L 60.660156 125.992188 L 60.660156 135.285156 L 67.765625 135.285156 Z M 90.339844 135.28125 L 38.078125 135.28125 C 36.28125 135.28125 34.824219 136.742188 34.824219 138.535156 L 34.824219 142.480469 L 93.597656 142.480469 L 93.597656 138.535156 C 93.597656 136.742188 92.144531 135.28125 90.339844 135.28125 Z M 92.226562 14.785156 C 117.695312 28.847656 128.257812 60.433594 115.777344 87.1875 C 103.28125 113.976562 72.207031 126.1875 45.035156 115.644531 L 42.226562 121.605469 C 72.707031 133.6875 107.699219 120.050781 121.738281 89.964844 C 135.800781 59.824219 123.695312 24.203125 94.738281 8.671875 " fill-opacity="1" fill-rule="nonzero"/><path fill="#07a1e5" d="M 44.390625 108.246094 C 20.070312 96.914062 9.554688 68.027344 20.890625 43.71875 C 32.226562 19.414062 61.132812 8.902344 85.449219 20.234375 C 109.765625 31.566406 120.285156 60.457031 108.949219 84.761719 C 97.613281 109.066406 68.707031 119.582031 44.390625 108.246094 Z M 44.390625 108.246094 " fill-opacity="1" fill-rule="nonzero"/><path fill="#6ad86a" d="M 77.269531 39.390625 C 77.5 39.558594 77.746094 39.726562 77.9375 39.945312 C 78.191406 40.238281 78.195312 40.648438 78.207031 41.023438 C 78.21875 41.417969 78.191406 41.816406 78.132812 42.207031 C 78.039062 42.832031 77.84375 43.476562 77.367188 43.882812 C 76.769531 44.386719 75.917969 44.382812 75.15625 44.554688 C 74.527344 44.703125 73.929688 44.984375 73.28125 45.0625 C 72.953125 45.105469 72.597656 45.082031 72.300781 44.9375 C 72.035156 44.800781 71.816406 44.5625 71.726562 44.273438 C 71.648438 44.03125 71.664062 43.757812 71.742188 43.515625 C 71.953125 42.796875 72.589844 42.308594 73.039062 41.710938 C 73.46875 41.148438 73.738281 40.46875 74.242188 39.976562 C 75.003906 39.234375 76.28125 38.984375 77.269531 39.390625 M 40.820312 22.1875 C 32.421875 26.925781 17.9375 41.621094 16.503906 60.109375 C 15.070312 78.597656 26.53125 93.246094 26.53125 93.246094 C 27.726562 91.070312 26.699219 88.414062 26.433594 85.945312 C 26.082031 82.632812 27.167969 79.355469 28.238281 76.203125 C 28.964844 74.058594 30.195312 71.515625 32.460938 71.433594 C 33.738281 71.382812 34.875 72.191406 36.097656 72.554688 C 37.324219 72.921875 39.046875 72.507812 39.1875 71.238281 C 39.261719 70.558594 38.839844 69.941406 38.640625 69.289062 C 38.089844 67.515625 39.300781 65.566406 40.945312 64.699219 C 42.589844 63.832031 44.539062 63.796875 46.398438 63.878906 C 48.253906 63.960938 50.15625 64.132812 51.945312 63.625 C 53.734375 63.113281 55.414062 61.71875 55.632812 59.871094 C 55.867188 57.824219 54.320312 55.632812 55.308594 53.824219 C 56.148438 52.289062 58.597656 51.625 58.503906 49.878906 C 58.457031 48.953125 57.578125 48.230469 56.664062 48.078125 C 55.746094 47.925781 54.816406 48.21875 53.972656 48.59375 C 51.328125 49.753906 48.851562 51.761719 45.964844 51.625 C 44.511719 51.5625 43.15625 50.949219 41.835938 50.347656 C 40.714844 49.832031 39.46875 49.191406 39.09375 48.011719 C 38.695312 46.75 39.464844 45.441406 40.199219 44.339844 C 42.25 41.261719 44.519531 38 47.984375 36.703125 C 49.515625 36.128906 51.191406 35.988281 52.699219 35.363281 C 54.214844 34.738281 55.632812 33.394531 55.578125 31.761719 C 55.511719 29.761719 53.445312 28.53125 51.640625 27.675781 C 49.816406 26.8125 48 25.949219 46.175781 25.085938 C 44.015625 25.601562 41.570312 24.277344 40.820312 22.1875 M 79.140625 87.203125 C 79.101562 87.171875 79.074219 87.136719 79.03125 87.105469 C 78.984375 87.074219 78.933594 87.039062 78.878906 87.007812 C 78.777344 86.941406 78.675781 86.882812 78.566406 86.828125 C 78.355469 86.71875 78.132812 86.621094 77.902344 86.546875 C 77.480469 86.40625 77.035156 86.324219 76.585938 86.316406 C 75.683594 86.300781 74.78125 86.585938 74.058594 87.125 C 73.332031 87.679688 72.820312 88.46875 72.136719 89.074219 C 71.484375 89.65625 70.683594 90.0625 70.085938 90.707031 C 69.53125 91.308594 69.183594 92.097656 69.117188 92.917969 C 69.101562 93.105469 69.101562 93.300781 69.171875 93.476562 C 69.363281 93.941406 69.964844 94.09375 70.464844 94.019531 C 70.964844 93.941406 71.4375 93.714844 71.941406 93.6875 C 72.847656 93.632812 73.789062 94.230469 74.625 93.878906 C 75.195312 93.636719 75.507812 93.035156 75.992188 92.652344 C 76.460938 92.28125 77.0625 92.128906 77.652344 92.046875 C 78.246094 91.96875 78.847656 91.945312 79.421875 91.789062 C 79.933594 91.648438 80.449219 91.363281 80.660156 90.882812 C 80.769531 90.625 80.785156 90.34375 80.757812 90.066406 C 80.710938 89.59375 80.542969 89.152344 80.320312 88.738281 C 80.089844 88.320312 79.816406 87.917969 79.5 87.566406 C 79.378906 87.441406 79.261719 87.320312 79.140625 87.203125 M 72.097656 16.445312 C 72.511719 18.507812 72.953125 20.136719 74.207031 21.824219 C 74.683594 22.464844 75.269531 23.035156 75.617188 23.75 C 76.09375 24.722656 76.066406 25.925781 75.546875 26.875 C 75.382812 27.175781 75.167969 27.496094 75.242188 27.824219 C 75.304688 28.101562 75.550781 28.296875 75.78125 28.464844 C 77.226562 29.519531 78.691406 30.582031 80.355469 31.234375 C 81.660156 31.738281 83.277344 32.1875 83.652344 33.535156 C 84.140625 35.269531 82.050781 36.96875 82.5625 38.699219 C 84.351562 38.273438 86.152344 37.839844 87.941406 37.410156 C 88.566406 37.257812 89.21875 37.105469 89.851562 37.21875 C 90.667969 37.359375 91.339844 37.914062 92.074219 38.304688 C 92.808594 38.695312 93.773438 38.902344 94.417969 38.378906 C 95.015625 37.902344 95.074219 37.039062 95.199219 36.285156 C 95.324219 35.53125 95.710938 34.65625 96.472656 34.578125 C 96.808594 34.542969 97.140625 34.679688 97.449219 34.816406 C 99.167969 35.570312 100.917969 36.339844 102.335938 37.570312 C 104.125 39.136719 105.503906 41.488281 107.851562 41.90625 C 107.851562 41.90625 104.339844 31.816406 96.222656 26.699219 C 88.105469 21.582031 78.65625 16.152344 72.25 16.453125 M 71.382812 112.09375 C 70.921875 111.050781 69.609375 110.78125 68.496094 110.519531 C 67.386719 110.253906 66.09375 109.574219 66.136719 108.4375 C 66.164062 107.808594 66.605469 107.292969 66.941406 106.753906 C 67.277344 106.21875 67.496094 105.484375 67.097656 104.996094 C 66.953125 104.816406 66.746094 104.699219 66.546875 104.589844 C 64.910156 103.699219 63.101562 102.875 61.257812 103.097656 C 58.121094 103.472656 55.507812 106.753906 52.433594 106.015625 C 49.816406 105.386719 48.714844 102.21875 46.425781 100.808594 C 46.136719 100.628906 45.828125 100.480469 45.59375 100.238281 C 45.324219 99.953125 45.175781 99.582031 45.023438 99.226562 C 44.460938 97.925781 43.667969 96.71875 42.695312 95.683594 C 42.351562 95.320312 41.972656 94.96875 41.5 94.820312 C 40.941406 94.652344 40.339844 94.800781 39.789062 95 C 38.503906 95.472656 37.324219 96.242188 36.378906 97.230469 C 35.46875 95.726562 33.796875 94.816406 32.082031 94.4375 C 30.363281 94.054688 28.585938 94.144531 26.832031 94.234375 C 26.832031 94.234375 37.003906 108.425781 51.511719 110.917969 C 66.019531 113.40625 71.382812 112.09375 71.382812 112.09375 Z M 90.949219 105.125 C 96.03125 102.203125 105.710938 92.796875 107.851562 88.476562 C 119.425781 59.265625 110.636719 49.292969 110.636719 49.292969 C 107.574219 48.074219 103.714844 49.402344 102.046875 52.238281 C 101.726562 52.78125 101.476562 53.378906 101.042969 53.835938 C 100.523438 54.390625 99.789062 54.683594 99.167969 55.117188 C 97.617188 56.195312 96.632812 58.183594 94.789062 58.605469 C 92.664062 59.089844 90.785156 57.238281 88.703125 56.613281 C 86.898438 56.078125 84.824219 56.53125 83.417969 57.785156 C 83.035156 58.128906 82.691406 58.527344 82.234375 58.777344 C 81.496094 59.179688 80.601562 59.105469 79.761719 59.125 C 78.835938 59.148438 77.882812 59.316406 77.144531 59.863281 C 76.40625 60.417969 75.960938 61.4375 76.300781 62.289062 C 76.421875 62.59375 76.632812 62.863281 76.660156 63.191406 C 76.6875 63.527344 76.511719 63.847656 76.328125 64.132812 C 74.78125 66.558594 72.441406 68.464844 71.28125 71.089844 C 70.421875 73.035156 70.28125 75.210938 70.15625 77.332031 C 70.085938 78.535156 70.160156 80.019531 71.242188 80.566406 C 72.261719 81.082031 73.441406 80.382812 74.488281 79.925781 C 77.578125 78.578125 81.132812 79.363281 84.40625 80.164062 C 85.878906 80.523438 87.535156 81.027344 88.191406 82.390625 C 88.863281 83.785156 88.175781 85.4375 87.367188 86.761719 C 86.558594 88.085938 85.585938 89.464844 85.6875 91.011719 C 85.855469 93.566406 88.914062 95.414062 88.632812 97.957031 C 88.566406 98.53125 88.332031 99.101562 88.453125 99.667969 C 88.636719 100.550781 89.578125 101.019531 90.21875 101.660156 C 91.132812 102.601562 91.4375 103.90625 90.949219 105.125 " fill-opacity="1" fill-rule="nonzero"/><g clip-path="url(#833eb07f0b)"><path fill="#000000" d="M 96.457031 7.753906 C 96.476562 5.792969 95.375 3.90625 93.480469 3.023438 C 90.902344 1.816406 87.828125 2.941406 86.628906 5.519531 L 81.355469 16.820312 C 70.476562 13.035156 58.722656 13.09375 47.75 17.085938 C 35.148438 21.667969 25.082031 30.886719 19.414062 43.03125 C 13.746094 55.179688 13.148438 68.808594 17.738281 81.402344 C 21.734375 92.367188 29.242188 101.410156 39.132812 107.300781 L 33.863281 118.605469 C 33.28125 119.855469 33.214844 121.253906 33.6875 122.546875 C 34.160156 123.835938 35.105469 124.875 36.351562 125.453125 C 37.054688 125.78125 37.796875 125.9375 38.523438 125.9375 C 40.242188 125.9375 41.890625 125.074219 42.859375 123.582031 C 48.171875 125.5625 53.601562 126.792969 59.027344 127.316406 L 59.027344 133.648438 L 38.078125 133.648438 C 35.386719 133.648438 33.195312 135.839844 33.195312 138.53125 L 33.195312 142.476562 C 33.195312 143.378906 33.921875 144.105469 34.824219 144.105469 L 93.597656 144.105469 C 94.5 144.105469 95.226562 143.378906 95.226562 142.476562 L 95.226562 138.53125 C 95.226562 135.839844 93.035156 133.648438 90.339844 133.648438 L 69.390625 133.648438 L 69.390625 127.460938 C 92.003906 125.941406 113.046875 112.4375 123.214844 90.644531 C 137.414062 60.226562 125.648438 24.039062 96.457031 7.753906 Z M 110.425781 85.449219 C 121.386719 61.949219 112.507812 34.195312 90.699219 21.179688 L 92.6875 16.925781 C 116.585938 30.957031 126.097656 61.21875 114.304688 86.496094 C 105.175781 106.066406 85.582031 117.773438 65.078125 117.773438 C 59.082031 117.773438 53.003906 116.761719 47.09375 114.65625 L 48.488281 111.660156 C 53.863281 113.527344 59.382812 114.421875 64.839844 114.421875 C 83.761719 114.421875 101.917969 103.6875 110.425781 85.449219 Z M 90.753906 100.335938 C 90.28125 99.9375 89.710938 99.6875 89.800781 99.054688 C 89.921875 98.078125 90.09375 97.269531 89.804688 96.296875 C 89.363281 94.832031 88.328125 93.699219 87.574219 92.394531 C 87.324219 91.96875 87.085938 91.429688 87.039062 91.007812 C 86.949219 90.136719 87.40625 89.320312 87.828125 88.589844 C 88.800781 86.929688 90 85.234375 89.789062 83.203125 C 89.582031 81.167969 88.0625 79.949219 86.253906 79.28125 C 84.597656 78.671875 82.773438 78.324219 81.03125 78.0625 C 79.027344 77.765625 76.953125 77.683594 74.992188 78.28125 C 74.128906 78.546875 73.355469 79.050781 72.484375 79.289062 C 71.832031 79.46875 71.671875 79.3125 71.546875 78.738281 C 71.40625 78.0625 71.503906 77.28125 71.546875 76.582031 C 71.609375 75.558594 71.699219 74.539062 71.910156 73.527344 C 72.289062 71.769531 73.125 70.300781 74.253906 68.910156 C 75.40625 67.488281 76.882812 66.105469 77.691406 64.449219 C 77.941406 63.933594 78.070312 63.390625 77.957031 62.820312 C 77.882812 62.445312 77.589844 62.101562 77.539062 61.734375 C 77.457031 61.132812 78.140625 60.753906 78.632812 60.625 C 79.457031 60.402344 80.304688 60.515625 81.140625 60.433594 C 82.230469 60.332031 83.070312 59.933594 83.882812 59.195312 C 85.070312 58.109375 86.480469 57.4375 88.125 57.863281 C 89.800781 58.289062 91.160156 59.507812 92.859375 59.890625 C 94.914062 60.351562 96.617188 59.507812 98.035156 58.066406 C 98.621094 57.472656 99.164062 56.789062 99.84375 56.289062 C 100.722656 55.648438 101.667969 55.261719 102.339844 54.363281 C 102.867188 53.65625 103.164062 52.808594 103.761719 52.152344 C 104.3125 51.546875 104.96875 51.066406 105.71875 50.726562 C 107.003906 50.140625 108.421875 50.046875 109.761719 50.433594 C 113.074219 61.167969 112.574219 73.109375 107.464844 84.066406 C 103.925781 91.652344 98.601562 97.847656 92.226562 102.390625 C 91.9375 101.617188 91.425781 100.90625 90.753906 100.335938 Z M 89.582031 6.890625 C 90.027344 5.941406 91.15625 5.527344 92.105469 5.972656 C 93.054688 6.417969 93.46875 7.546875 93.023438 8.496094 L 87.859375 19.5625 L 84.417969 17.957031 Z M 84.765625 21.710938 C 91.921875 25.046875 97.839844 29.96875 102.300781 35.855469 C 101.214844 35.09375 100.03125 34.472656 98.785156 33.914062 C 97.71875 33.441406 96.605469 32.871094 95.46875 33.480469 C 94.570312 33.953125 94.070312 34.949219 93.898438 35.910156 C 93.8125 36.390625 93.929688 37.414062 93.261719 37.296875 C 92.828125 37.21875 92.449219 36.9375 92.078125 36.714844 C 91.597656 36.421875 91.089844 36.144531 90.546875 35.976562 C 89.191406 35.558594 87.761719 36.046875 86.4375 36.363281 C 85.707031 36.542969 84.96875 36.714844 84.234375 36.894531 C 84.277344 36.800781 84.316406 36.714844 84.359375 36.628906 C 84.75 35.78125 85.128906 34.898438 85.089844 33.941406 C 85 31.859375 83.21875 30.859375 81.488281 30.199219 C 80.578125 29.851562 79.722656 29.460938 78.890625 28.949219 C 78.441406 28.671875 78 28.375 77.566406 28.070312 C 77.332031 27.90625 77.101562 27.738281 76.871094 27.570312 C 76.851562 27.554688 76.828125 27.539062 76.808594 27.515625 C 76.96875 27.203125 77.09375 26.707031 77.148438 26.523438 C 77.296875 25.996094 77.355469 25.421875 77.304688 24.878906 C 77.199219 23.710938 76.714844 22.785156 75.996094 21.875 C 75.339844 21.042969 74.710938 20.234375 74.292969 19.253906 C 74.140625 18.894531 74.023438 18.523438 73.914062 18.152344 C 77.605469 18.890625 81.246094 20.070312 84.765625 21.710938 Z M 96.777344 35.851562 C 96.796875 35.808594 96.820312 35.78125 96.835938 35.796875 C 96.867188 35.835938 96.828125 35.847656 96.777344 35.851562 Z M 76.574219 27.363281 C 76.574219 27.363281 76.566406 27.359375 76.566406 27.359375 C 76.480469 27.34375 76.449219 27.320312 76.46875 27.285156 C 76.523438 27.203125 76.558594 27.234375 76.574219 27.363281 Z M 48.863281 20.140625 C 54.101562 18.238281 59.53125 17.289062 64.949219 17.289062 C 66.964844 17.289062 68.976562 17.421875 70.980469 17.683594 C 71.371094 19.367188 71.9375 21 72.960938 22.410156 C 73.484375 23.125 74.304688 23.828125 74.53125 24.710938 C 74.78125 25.695312 74.15625 26.273438 73.941406 27.164062 C 73.621094 28.476562 74.542969 29.230469 75.488281 29.914062 C 76.410156 30.582031 77.34375 31.238281 78.347656 31.777344 C 79.234375 32.25 80.171875 32.558594 81.089844 32.949219 C 81.574219 33.15625 82.214844 33.441406 82.34375 33.882812 C 82.421875 34.148438 82.339844 34.398438 82.214844 34.75 C 82.082031 35.125 81.898438 35.476562 81.738281 35.839844 C 81.273438 36.882812 80.972656 37.910156 81.253906 39.046875 C 81.433594 39.773438 82.226562 40.164062 82.925781 39.996094 C 84.121094 39.710938 85.320312 39.421875 86.515625 39.136719 C 87.066406 39 87.628906 38.867188 88.179688 38.734375 C 88.652344 38.621094 89.175781 38.445312 89.667969 38.542969 C 90.113281 38.628906 90.519531 38.945312 90.902344 39.171875 C 91.355469 39.449219 91.835938 39.699219 92.351562 39.855469 C 93.402344 40.175781 94.636719 40.050781 95.449219 39.257812 C 96.195312 38.53125 96.335938 37.597656 96.507812 36.628906 C 96.507812 36.640625 96.625 36.210938 96.722656 35.960938 C 96.949219 36.058594 97.183594 36.15625 97.410156 36.253906 C 99.300781 37.09375 100.992188 38.035156 102.425781 39.542969 C 103.707031 40.886719 104.988281 42.367188 106.765625 43 C 107.507812 44.464844 108.171875 45.972656 108.757812 47.507812 C 106.179688 47.339844 103.492188 48.371094 101.792969 50.308594 C 101.179688 51.003906 100.789062 51.789062 100.304688 52.566406 C 99.886719 53.242188 99.109375 53.507812 98.480469 53.949219 C 97.773438 54.441406 97.175781 55.039062 96.589844 55.664062 C 96.082031 56.207031 95.558594 56.824219 94.875 57.152344 C 93.527344 57.785156 91.980469 56.617188 90.820312 56.039062 C 89.054688 55.160156 87.183594 54.753906 85.238281 55.296875 C 84.300781 55.554688 83.453125 56.015625 82.691406 56.625 C 81.992188 57.1875 81.632812 57.71875 80.679688 57.753906 C 78.667969 57.824219 76.550781 57.941406 75.355469 59.832031 C 74.839844 60.652344 74.664062 61.726562 74.984375 62.648438 C 75.054688 62.855469 75.210938 63.070312 75.269531 63.277344 C 75.257812 63.292969 75.238281 63.316406 75.195312 63.351562 C 74.875 63.640625 74.644531 64.179688 74.378906 64.523438 C 73.257812 65.984375 71.953125 67.308594 70.9375 68.859375 C 69.765625 70.652344 69.238281 72.644531 68.988281 74.742188 C 68.78125 76.496094 68.449219 78.613281 69.210938 80.273438 C 69.585938 81.09375 70.285156 81.714844 71.160156 81.972656 C 72.179688 82.269531 73.207031 81.945312 74.152344 81.539062 C 75.035156 81.15625 75.871094 80.789062 76.832031 80.632812 C 77.746094 80.484375 78.691406 80.515625 79.601562 80.597656 C 81.453125 80.765625 83.386719 81.195312 85.15625 81.765625 C 85.75 81.957031 86.433594 82.214844 86.816406 82.730469 C 87.269531 83.328125 87.085938 84.121094 86.851562 84.765625 C 86.195312 86.558594 84.710938 87.933594 84.402344 89.878906 C 84.121094 91.636719 84.78125 93.140625 85.742188 94.570312 C 86.492188 95.683594 87.46875 96.78125 87.226562 98.070312 C 87.019531 99.167969 86.960938 100.167969 87.660156 101.105469 C 88.152344 101.765625 88.914062 102.152344 89.414062 102.796875 C 89.710938 103.179688 89.820312 103.585938 89.800781 104.003906 C 84.371094 107.382812 78.300781 109.628906 71.980469 110.601562 C 71.035156 109.65625 69.617188 109.523438 68.34375 109.050781 C 68.125 108.96875 67.875 108.859375 67.703125 108.722656 C 67.679688 108.707031 67.566406 108.570312 67.515625 108.519531 C 67.523438 108.472656 67.507812 108.347656 67.484375 108.421875 C 67.542969 108.191406 67.738281 107.976562 67.871094 107.78125 C 68.152344 107.34375 68.414062 106.902344 68.554688 106.390625 C 69.199219 104.003906 66.691406 103 64.90625 102.308594 C 63.140625 101.625 61.234375 101.472656 59.445312 102.140625 C 57.890625 102.71875 56.542969 103.695312 55.03125 104.34375 C 53.875 104.839844 52.765625 104.9375 51.722656 104.203125 C 50.648438 103.445312 49.867188 102.203125 48.964844 101.222656 C 48.449219 100.660156 47.878906 100.144531 47.238281 99.722656 C 47 99.5625 46.703125 99.449219 46.511719 99.238281 C 46.214844 98.890625 46.078125 98.300781 45.871094 97.894531 C 45.394531 96.941406 44.785156 96.070312 44.101562 95.25 C 43.351562 94.355469 42.476562 93.53125 41.261719 93.410156 C 39.609375 93.253906 37.863281 94.175781 36.5 95.273438 C 34.339844 93.140625 31.152344 92.769531 28.117188 92.828125 C 28.710938 90.800781 28.214844 88.707031 27.867188 86.601562 C 27.449219 84.0625 27.953125 81.566406 28.6875 79.132812 C 29.246094 77.277344 29.773438 74.902344 31.175781 73.460938 C 32.660156 71.933594 34.414062 73.679688 36.207031 73.960938 C 38.410156 74.308594 40.96875 72.992188 40.46875 70.429688 C 40.273438 69.421875 39.605469 68.671875 39.996094 67.617188 C 40.296875 66.816406 40.964844 66.1875 41.722656 65.8125 C 43.867188 64.753906 46.515625 65.300781 48.800781 65.324219 C 51.230469 65.34375 53.804688 64.851562 55.523438 62.996094 C 56.289062 62.171875 56.804688 61.167969 56.945312 60.042969 C 57.09375 58.871094 56.789062 57.726562 56.523438 56.597656 C 56.34375 55.828125 56.144531 54.855469 56.605469 54.269531 C 57.113281 53.613281 57.886719 53.179688 58.5 52.625 C 59.222656 51.980469 59.757812 51.15625 59.835938 50.167969 C 59.925781 48.984375 59.253906 47.910156 58.28125 47.28125 C 56.023438 45.808594 53.308594 47.316406 51.257812 48.425781 C 49.378906 49.433594 47.332031 50.65625 45.117188 50.144531 C 44.003906 49.882812 42.917969 49.394531 41.886719 48.871094 C 41.195312 48.515625 40.230469 48.035156 40.339844 47.113281 C 40.46875 46.03125 41.355469 45.015625 41.945312 44.144531 C 42.539062 43.273438 43.140625 42.40625 43.8125 41.597656 C 45.128906 40.019531 46.691406 38.542969 48.679688 37.886719 C 51.039062 37.101562 53.625 36.980469 55.476562 35.113281 C 57.183594 33.386719 57.371094 30.890625 55.84375 28.992188 C 54.445312 27.25 52.148438 26.414062 50.183594 25.488281 C 49.546875 25.1875 48.910156 24.886719 48.28125 24.585938 C 47.664062 24.292969 46.863281 23.722656 46.167969 23.722656 C 45.695312 23.722656 45.289062 23.882812 44.800781 23.816406 C 44.441406 23.765625 44.0625 23.652344 43.730469 23.480469 C 43.402344 23.3125 43.085938 23.089844 42.820312 22.832031 C 44.753906 21.808594 46.765625 20.90625 48.863281 20.140625 Z M 22.367188 44.410156 C 26.335938 35.90625 32.601562 28.945312 40.441406 24.179688 C 41.746094 25.835938 43.820312 26.746094 45.980469 26.484375 C 47.988281 27.417969 50.046875 28.296875 51.980469 29.367188 C 53.144531 30.019531 54.871094 31.195312 53.949219 32.703125 C 52.871094 34.472656 50.339844 34.59375 48.546875 35.09375 C 46.453125 35.679688 44.632812 36.835938 43.097656 38.363281 C 41.613281 39.835938 40.402344 41.570312 39.246094 43.300781 C 37.917969 45.28125 36.804688 47.699219 38.578125 49.792969 C 39.253906 50.585938 40.207031 51.085938 41.136719 51.511719 C 42.191406 51.996094 43.265625 52.5 44.398438 52.761719 C 46.746094 53.304688 48.933594 52.664062 51.027344 51.617188 C 52.039062 51.109375 53.015625 50.535156 54.03125 50.042969 C 54.765625 49.6875 55.839844 49.128906 56.660156 49.476562 C 56.855469 49.558594 57.023438 49.683594 57.113281 49.878906 C 57.175781 50.007812 57.152344 49.964844 57.109375 50.089844 C 57.175781 49.878906 56.953125 50.375 57.054688 50.226562 C 56.617188 50.839844 55.886719 51.257812 55.324219 51.742188 C 54.613281 52.347656 54.015625 53.101562 53.757812 54.019531 C 53.464844 55.074219 53.652344 56.179688 53.890625 57.226562 C 54.085938 58.074219 54.425781 59.011719 54.25 59.890625 C 54.097656 60.640625 53.546875 61.269531 52.929688 61.6875 C 51.050781 62.933594 48.652344 62.632812 46.515625 62.535156 C 44.28125 62.429688 41.773438 62.492188 39.839844 63.78125 C 38.0625 64.96875 36.859375 67.023438 37.214844 69.199219 C 37.304688 69.707031 37.519531 70.148438 37.695312 70.625 C 37.742188 70.75 37.820312 70.914062 37.839844 71.042969 C 37.839844 71.027344 37.792969 71.277344 37.804688 71.15625 C 37.808594 71.128906 37.808594 71.113281 37.8125 71.101562 C 37.808594 71.117188 37.785156 71.15625 37.738281 71.183594 C 37.8125 71.140625 37.609375 71.234375 37.597656 71.238281 C 37.515625 71.269531 37.199219 71.335938 37.234375 71.332031 C 36.808594 71.378906 36.550781 71.304688 36.125 71.15625 C 35.039062 70.769531 34.0625 70.21875 32.894531 70.109375 C 31.921875 70.023438 30.914062 70.300781 30.117188 70.847656 C 28.503906 71.953125 27.644531 73.808594 27.007812 75.601562 C 26.179688 77.941406 25.433594 80.320312 25.125 82.789062 C 24.972656 84 24.96875 85.207031 25.125 86.410156 C 25.273438 87.515625 25.53125 88.609375 25.664062 89.71875 C 25.679688 89.839844 25.691406 89.960938 25.703125 90.078125 C 23.714844 87.054688 22.058594 83.789062 20.792969 80.304688 C 16.507812 68.515625 17.070312 55.765625 22.367188 44.410156 Z M 29.910156 95.53125 C 31.988281 95.625 34.058594 96.117188 35.203125 97.917969 C 35.664062 98.648438 36.699219 98.835938 37.335938 98.195312 C 37.933594 97.589844 38.574219 97.09375 39.328125 96.695312 C 39.855469 96.410156 40.707031 95.902344 41.289062 96.226562 C 41.914062 96.578125 42.449219 97.453125 42.835938 98.042969 C 43.320312 98.78125 43.65625 99.574219 44.046875 100.363281 C 44.460938 101.199219 45.144531 101.578125 45.882812 102.078125 C 46.417969 102.441406 46.871094 102.9375 47.296875 103.421875 C 48.234375 104.492188 49.0625 105.625 50.226562 106.460938 C 51.496094 107.371094 53.027344 107.644531 54.550781 107.351562 C 56.007812 107.070312 57.316406 106.242188 58.597656 105.542969 C 59.835938 104.867188 61.109375 104.246094 62.558594 104.46875 C 63.40625 104.601562 64.222656 104.929688 64.988281 105.3125 C 65.246094 105.441406 65.648438 105.578125 65.90625 105.773438 C 65.851562 105.886719 65.769531 106.070312 65.761719 106.074219 C 65.238281 107.03125 64.628906 107.796875 64.828125 108.96875 C 64.980469 109.875 65.585938 110.585938 66.339844 111.078125 C 66.371094 111.101562 66.410156 111.117188 66.441406 111.140625 C 59.296875 111.382812 51.988281 109.992188 45.078125 106.777344 C 39.21875 104.039062 34.09375 100.210938 29.910156 95.53125 Z M 40.261719 121.589844 C 39.816406 122.539062 38.6875 122.953125 37.738281 122.507812 C 37.277344 122.289062 36.929688 121.910156 36.753906 121.4375 C 36.582031 120.960938 36.601562 120.445312 36.820312 119.984375 L 41.984375 108.917969 L 45.425781 110.527344 Z M 90.339844 136.910156 C 91.238281 136.910156 91.96875 137.640625 91.96875 138.535156 L 91.96875 140.855469 L 36.453125 140.855469 L 36.453125 138.535156 C 36.453125 137.640625 37.183594 136.910156 38.078125 136.910156 Z M 62.289062 133.652344 L 62.289062 127.617188 L 66.136719 127.617188 L 66.136719 133.660156 L 62.289062 133.660156 Z M 120.269531 89.277344 C 106.90625 117.910156 73.777344 131.476562 44.296875 120.652344 L 45.703125 117.632812 C 52.066406 119.933594 58.613281 121.03125 65.074219 121.03125 C 86.808594 121.03125 107.578125 108.621094 117.261719 87.875 C 129.808594 60.988281 119.609375 28.769531 94.070312 13.960938 L 95.476562 10.945312 C 122.738281 26.5625 133.640625 60.613281 120.269531 89.277344 Z M 73.257812 43.542969 Z M 71.621094 46.109375 C 72.570312 46.617188 73.664062 46.4375 74.640625 46.125 C 75 46.011719 75.351562 45.894531 75.722656 45.824219 C 76.089844 45.75 76.46875 45.710938 76.832031 45.621094 C 77.773438 45.378906 78.558594 44.804688 79.039062 43.960938 C 79.566406 43.035156 79.609375 42.058594 79.570312 41.023438 C 79.546875 40.46875 79.503906 39.90625 79.21875 39.417969 C 78.925781 38.902344 78.425781 38.558594 77.953125 38.21875 C 77.816406 38.121094 77.652344 38.066406 77.492188 38.042969 C 75.960938 37.511719 74.054688 38.042969 73.039062 39.296875 C 72.75 39.652344 72.511719 40.023438 72.277344 40.410156 C 72.1875 40.5625 72.089844 40.714844 71.992188 40.859375 C 71.980469 40.882812 71.96875 40.894531 71.964844 40.910156 C 71.898438 40.984375 71.832031 41.0625 71.769531 41.136719 C 71.210938 41.765625 70.605469 42.414062 70.40625 43.265625 C 70.152344 44.375 70.589844 45.554688 71.621094 46.109375 Z M 76.867188 40.789062 C 76.867188 40.796875 76.871094 40.796875 76.867188 40.800781 C 76.867188 40.796875 76.859375 40.796875 76.859375 40.785156 Z M 76.8125 40.664062 C 76.8125 40.675781 76.824219 40.6875 76.828125 40.699219 C 76.8125 40.679688 76.808594 40.675781 76.800781 40.664062 C 76.808594 40.664062 76.808594 40.664062 76.8125 40.664062 Z M 73.160156 43.683594 C 73.164062 43.671875 73.179688 43.648438 73.203125 43.617188 C 73.191406 43.621094 73.183594 43.628906 73.179688 43.632812 C 73.183594 43.628906 73.191406 43.621094 73.203125 43.613281 C 73.230469 43.585938 73.246094 43.558594 73.257812 43.542969 C 73.429688 43.339844 73.609375 43.144531 73.78125 42.945312 C 74.21875 42.441406 74.542969 41.886719 74.902344 41.328125 C 74.9375 41.265625 74.976562 41.214844 75.015625 41.152344 C 75.027344 41.136719 75.03125 41.125 75.035156 41.117188 C 75.046875 41.109375 75.046875 41.105469 75.058594 41.09375 C 75.105469 41.046875 75.15625 40.992188 75.203125 40.941406 C 75.210938 40.9375 75.222656 40.921875 75.238281 40.910156 C 75.242188 40.902344 75.25 40.898438 75.257812 40.886719 C 75.28125 40.871094 75.308594 40.851562 75.324219 40.832031 C 75.390625 40.796875 75.453125 40.753906 75.527344 40.71875 C 75.527344 40.714844 75.550781 40.699219 75.585938 40.679688 C 75.628906 40.664062 75.671875 40.65625 75.714844 40.636719 C 75.773438 40.621094 75.835938 40.605469 75.894531 40.589844 C 75.925781 40.582031 75.953125 40.574219 75.988281 40.566406 C 76.007812 40.5625 76.019531 40.5625 76.03125 40.558594 C 76.035156 40.558594 76.042969 40.558594 76.042969 40.558594 C 76.121094 40.550781 76.199219 40.550781 76.273438 40.550781 C 76.335938 40.550781 76.394531 40.558594 76.453125 40.558594 C 76.460938 40.5625 76.460938 40.5625 76.46875 40.5625 C 76.535156 40.582031 76.59375 40.601562 76.660156 40.617188 C 76.6875 40.636719 76.714844 40.660156 76.742188 40.675781 C 76.746094 40.679688 76.753906 40.6875 76.757812 40.6875 C 76.785156 40.707031 76.808594 40.726562 76.824219 40.734375 C 76.808594 40.730469 76.796875 40.71875 76.78125 40.707031 C 76.796875 40.726562 76.808594 40.734375 76.816406 40.746094 C 76.816406 40.871094 76.855469 41.046875 76.859375 41.132812 C 76.871094 41.429688 76.886719 41.722656 76.878906 42.023438 C 76.878906 42.039062 76.882812 42.039062 76.882812 42.050781 C 76.871094 42.097656 76.851562 42.164062 76.851562 42.171875 C 76.832031 42.238281 76.8125 42.304688 76.796875 42.363281 C 76.789062 42.386719 76.769531 42.441406 76.746094 42.484375 C 76.703125 42.554688 76.628906 42.695312 76.617188 42.714844 C 76.617188 42.722656 76.617188 42.722656 76.617188 42.722656 C 76.585938 42.753906 76.550781 42.792969 76.519531 42.824219 C 76.503906 42.839844 76.46875 42.863281 76.441406 42.882812 C 76.421875 42.894531 76.40625 42.90625 76.394531 42.910156 C 76.371094 42.921875 76.3125 42.945312 76.285156 42.957031 C 76.253906 42.964844 76.21875 42.972656 76.210938 42.976562 C 75.640625 43.140625 75.035156 43.171875 74.464844 43.335938 C 74.171875 43.421875 73.886719 43.523438 73.59375 43.613281 C 73.445312 43.648438 73.300781 43.6875 73.152344 43.71875 C 73.148438 43.71875 73.148438 43.71875 73.148438 43.71875 C 73.140625 43.71875 73.136719 43.71875 73.136719 43.71875 C 73.140625 43.710938 73.148438 43.699219 73.160156 43.683594 Z M 69.234375 95.234375 C 69.796875 95.433594 70.382812 95.402344 70.960938 95.292969 C 71.441406 95.207031 71.871094 95.007812 72.367188 95.085938 C 72.996094 95.191406 73.597656 95.390625 74.242188 95.335938 C 75.070312 95.273438 75.765625 94.898438 76.300781 94.285156 C 76.628906 93.914062 76.84375 93.632812 77.285156 93.507812 C 77.859375 93.34375 78.433594 93.324219 79.03125 93.238281 C 80.617188 93.015625 82.148438 92.042969 82.128906 90.269531 C 82.105469 88.8125 81.273438 87.46875 80.292969 86.441406 C 80.238281 86.367188 80.171875 86.300781 80.101562 86.242188 C 79.988281 86.132812 79.875 86.058594 79.753906 85.996094 C 77.730469 84.648438 75.054688 84.601562 73.085938 86.167969 C 72.152344 86.910156 71.539062 87.917969 70.546875 88.601562 C 69.375 89.40625 68.488281 90.304688 68 91.667969 C 67.523438 93.015625 67.722656 94.6875 69.234375 95.234375 Z M 71.921875 90.941406 C 72.816406 90.328125 73.503906 89.65625 74.21875 88.847656 C 74.785156 88.195312 75.355469 87.800781 76.144531 87.695312 C 76.8125 87.613281 77.652344 87.757812 78.179688 88.164062 C 78.777344 88.742188 79.15625 89.339844 79.394531 90.136719 C 79.441406 90.269531 79.460938 90.289062 79.296875 90.394531 C 79.023438 90.5625 78.613281 90.578125 78.320312 90.617188 C 77.3125 90.742188 76.253906 90.820312 75.390625 91.414062 C 74.992188 91.683594 74.699219 92.003906 74.386719 92.363281 C 74.125 92.65625 74.128906 92.667969 73.800781 92.625 C 73.261719 92.558594 72.75 92.375 72.207031 92.347656 C 71.671875 92.3125 71.136719 92.460938 70.621094 92.589844 C 70.613281 92.597656 70.585938 92.601562 70.546875 92.605469 C 70.773438 91.851562 71.285156 91.382812 71.921875 90.941406 Z M 71.921875 90.941406 " fill-opacity="1" fill-rule="nonzero"/></g></svg>