<svg xmlns="http://www.w3.org/2000/svg" xmlns:xlink="http://www.w3.org/1999/xlink" width="400" zoomAndPan="magnify" viewBox="0 0 300 299.999988" height="400" preserveAspectRatio="xMidYMid meet" version="1.0"><defs><clipPath id="675c650e14"><path d="M 8.625 8.625 L 291.375 8.625 L 291.375 291.375 L 8.625 291.375 Z M 8.625 8.625 " clip-rule="nonzero"/></clipPath></defs><rect x="-30" width="360" fill="#ffffff" y="-29.999999" height="359.999986" fill-opacity="1"/><rect x="-30" width="360" fill="#ffffff" y="-29.999999" height="359.999986" fill-opacity="1"/><path fill="#3d99b9" d="M 150 289.625 C 141.714844 289.625 133.414062 288.894531 125.332031 287.457031 C 120.78125 286.640625 116.207031 285.582031 111.738281 284.316406 C 83.113281 276.175781 57.324219 258.613281 39.117188 234.863281 C 20.316406 210.332031 10.375 180.988281 10.375 150 C 10.375 148.136719 10.40625 146.582031 10.472656 145.113281 C 11.378906 118.457031 19.851562 92.773438 34.96875 70.84375 C 49.742188 49.410156 70.113281 32.566406 93.875 22.128906 C 107.585938 16.089844 122.148438 12.335938 137.15625 10.96875 C 141.410156 10.578125 145.734375 10.378906 150 10.378906 C 176.886719 10.378906 202.996094 18.039062 225.511719 32.535156 C 265.65625 58.398438 289.625 102.3125 289.625 150 C 289.625 183.910156 277.3125 216.609375 254.960938 242.066406 C 247.488281 250.578125 239.003906 258.167969 229.738281 264.625 C 206.28125 280.980469 178.707031 289.625 150 289.625 " fill-opacity="1" fill-rule="nonzero"/><g clip-path="url(#675c650e14)"><path fill="#3a0b19" d="M 150 8.628906 C 145.679688 8.628906 141.304688 8.832031 136.992188 9.226562 C 121.800781 10.613281 107.054688 14.414062 93.167969 20.53125 C 69.113281 31.097656 48.488281 48.152344 33.527344 69.851562 C 18.222656 92.054688 9.644531 118.066406 8.722656 145.070312 C 8.660156 146.519531 8.628906 148.144531 8.628906 150 C 8.628906 181.375 18.691406 211.085938 37.730469 235.925781 C 46.886719 247.871094 57.820312 258.234375 70.226562 266.730469 C 82.824219 275.355469 96.628906 281.835938 111.261719 285.996094 C 115.785156 287.28125 120.414062 288.347656 125.023438 289.175781 C 133.207031 290.632812 141.613281 291.371094 150 291.371094 C 179.066406 291.371094 206.984375 282.621094 230.734375 266.058594 C 240.117188 259.523438 248.707031 251.839844 256.273438 243.21875 C 278.90625 217.441406 291.371094 184.335938 291.371094 150 C 291.371094 125.925781 285.210938 102.152344 273.558594 81.25 C 262.261719 60.992188 245.976562 43.640625 226.460938 31.066406 C 203.664062 16.386719 177.222656 8.628906 150 8.628906 Z M 150 12.125 C 177.472656 12.125 203.070312 20.164062 224.566406 34.003906 C 262.652344 58.542969 287.875 101.324219 287.875 150 C 287.875 184.835938 274.957031 216.644531 253.648438 240.914062 C 246.28125 249.300781 237.917969 256.792969 228.738281 263.1875 C 206.414062 278.753906 179.28125 287.878906 150 287.878906 C 141.691406 287.878906 133.550781 287.144531 125.636719 285.734375 C 121.082031 284.917969 116.609375 283.882812 112.214844 282.632812 C 54.441406 266.207031 12.125 213.042969 12.125 150 C 12.125 148.394531 12.148438 146.785156 12.21875 145.191406 C 14.070312 90.8125 47.414062 44.445312 94.578125 23.730469 C 107.859375 17.878906 122.238281 14.082031 137.3125 12.707031 C 141.496094 12.320312 145.722656 12.125 150 12.125 " fill-opacity="1" fill-rule="nonzero"/></g><path fill="#5cc9ca" d="M 285.796875 149.492188 C 285.796875 195.550781 264.476562 235.320312 228.640625 260.71875 C 224.601562 261.105469 220.511719 261.300781 216.367188 261.300781 C 142.78125 261.300781 83.117188 200.632812 83.117188 125.816406 C 83.117188 79.746094 106.1875 38.71875 140.742188 14.242188 C 144.785156 13.863281 148.027344 13.980469 152.160156 13.980469 C 223.835938 13.980469 285.796875 74.660156 285.796875 149.492188 " fill-opacity="1" fill-rule="nonzero"/><path fill="#47bb3a" d="M 55.359375 167.699219 C 55 169.65625 54.636719 171.742188 55.382812 173.59375 C 56.339844 175.996094 58.832031 177.332031 60.730469 179.09375 C 63.203125 181.402344 64.703125 184.535156 66.824219 187.179688 C 68.933594 189.824219 72.136719 192.085938 75.46875 191.480469 C 77.183594 191.164062 78.675781 190.125 80.128906 189.160156 C 84.753906 186.132812 89.753906 183.636719 94.960938 181.75 C 101.742188 179.292969 108.90625 177.847656 116.121094 177.519531 C 118.414062 177.414062 120.816406 177.449219 122.878906 178.464844 C 124.847656 179.441406 126.328125 181.25 127.28125 183.242188 C 131.078125 191.164062 126.988281 200.496094 122.515625 208.058594 C 120.851562 210.875 119.089844 213.800781 117.636719 216.808594 C 115.175781 221.875 113.570312 227.164062 114.699219 232.570312 C 116.328125 240.386719 123.390625 246.214844 125.058594 254.03125 C 125.964844 258.296875 125.171875 262.746094 125.742188 267.058594 C 126.269531 270.996094 127.921875 274.757812 128.027344 278.71875 C 128.097656 281.214844 127.257812 283.941406 125.636719 285.734375 C 121.082031 284.917969 116.609375 283.882812 112.21875 282.632812 C 102.882812 274.734375 93.539062 266.835938 84.207031 258.9375 C 79.164062 254.660156 74.003906 250.257812 70.832031 244.445312 C 64.554688 232.933594 67.40625 218.859375 66.988281 205.738281 C 66.871094 202.441406 66.476562 198.96875 64.496094 196.335938 C 63.179688 194.589844 61.292969 193.378906 59.636719 191.957031 C 55.199219 188.171875 52.414062 182.867188 49.453125 177.847656 C 43.859375 168.363281 36.324219 158.785156 25.570312 156.445312 C 22.761719 155.839844 19.734375 155.710938 17.378906 154.066406 C 14.5 152.0625 13.535156 148.535156 12.21875 145.191406 C 14.070312 90.816406 47.414062 44.445312 94.578125 23.730469 C 94.15625 24.390625 93.679688 25.011719 93.191406 25.570312 C 88.613281 30.730469 83.042969 33.527344 80.78125 40.613281 C 78.089844 49.058594 81.25 59.390625 90.546875 61.792969 C 93.378906 62.515625 96.171875 62.433594 98.957031 61.957031 C 106.519531 60.660156 114 56.480469 121.734375 57.65625 C 130.519531 58.972656 137.21875 67.664062 137.324219 76.542969 C 137.429688 85.433594 131.628906 93.820312 123.75 97.921875 C 116.273438 101.800781 106.878906 102.453125 101.089844 108.570312 C 97.082031 112.800781 95.625 118.894531 91.910156 123.378906 C 89.542969 126.234375 86.46875 128.226562 83.183594 129.960938 C 78.101562 132.652344 72.488281 134.714844 68.105469 138.433594 C 59.824219 145.457031 57.351562 157.015625 55.359375 167.699219 " fill-opacity="1" fill-rule="nonzero"/><path fill="#3a0b19" d="M 55.359375 167.699219 L 53.640625 167.382812 C 53.4375 168.507812 53.203125 169.765625 53.199219 171.109375 C 53.199219 172.121094 53.335938 173.191406 53.761719 174.246094 L 53.761719 174.238281 C 54.074219 175.03125 54.511719 175.71875 54.996094 176.320312 C 55.730469 177.21875 56.5625 177.925781 57.359375 178.570312 C 58.15625 179.214844 58.921875 179.796875 59.542969 180.375 L 59.539062 180.371094 C 60.613281 181.375 61.535156 182.621094 62.464844 183.988281 C 63.390625 185.355469 64.316406 186.84375 65.460938 188.273438 L 65.457031 188.269531 C 66.5 189.574219 67.78125 190.800781 69.273438 191.738281 C 70.761719 192.671875 72.488281 193.324219 74.367188 193.324219 C 74.832031 193.324219 75.308594 193.285156 75.78125 193.199219 L 75.785156 193.199219 C 76.890625 192.992188 77.863281 192.570312 78.734375 192.097656 C 79.601562 191.621094 80.378906 191.089844 81.097656 190.617188 L 81.089844 190.621094 C 85.597656 187.667969 90.476562 185.234375 95.558594 183.394531 C 102.175781 180.996094 109.167969 179.582031 116.199219 179.265625 C 116.699219 179.242188 117.191406 179.226562 117.675781 179.226562 C 119.351562 179.222656 120.878906 179.421875 122.105469 180.03125 L 122.101562 180.03125 C 122.855469 180.40625 123.546875 180.953125 124.15625 181.636719 C 124.765625 182.320312 125.292969 183.132812 125.707031 183.996094 C 126.632812 185.9375 127.03125 187.964844 127.035156 190.089844 C 127.035156 192.855469 126.339844 195.785156 125.226562 198.695312 C 124.117188 201.601562 122.597656 204.484375 121.011719 207.167969 C 119.351562 209.980469 117.566406 212.941406 116.0625 216.046875 C 114.097656 220.101562 112.585938 224.414062 112.582031 228.964844 C 112.582031 230.269531 112.707031 231.59375 112.988281 232.929688 C 113.4375 235.085938 114.253906 237.066406 115.21875 238.925781 C 116.671875 241.71875 118.453125 244.257812 119.984375 246.777344 C 121.519531 249.292969 122.789062 251.773438 123.347656 254.394531 C 123.710938 256.101562 123.78125 257.925781 123.78125 259.839844 C 123.78125 260.757812 123.765625 261.699219 123.765625 262.660156 C 123.765625 264.164062 123.800781 265.707031 124.011719 267.289062 C 124.296875 269.421875 124.867188 271.414062 125.347656 273.3125 C 125.835938 275.210938 126.234375 277.015625 126.28125 278.765625 C 126.28125 278.847656 126.28125 278.929688 126.28125 279.011719 C 126.285156 280.015625 126.105469 281.085938 125.765625 282.058594 C 125.429688 283.035156 124.933594 283.910156 124.339844 284.5625 L 125.640625 285.734375 L 125.945312 284.011719 C 121.449219 283.210938 117.03125 282.183594 112.695312 280.953125 L 112.21875 282.632812 L 113.34375 281.300781 C 104.011719 273.402344 94.667969 265.5 85.335938 257.601562 C 80.289062 253.332031 75.320312 249.042969 72.367188 243.605469 C 70.757812 240.65625 69.777344 237.511719 69.199219 234.195312 C 68.617188 230.882812 68.441406 227.402344 68.445312 223.832031 C 68.441406 218.890625 68.777344 213.777344 68.777344 208.6875 C 68.777344 207.6875 68.765625 206.683594 68.734375 205.683594 L 68.734375 205.675781 C 68.675781 203.980469 68.542969 202.183594 68.144531 200.40625 C 67.746094 198.632812 67.074219 196.855469 65.890625 195.285156 C 65.105469 194.246094 64.199219 193.417969 63.308594 192.679688 C 62.417969 191.941406 61.539062 191.289062 60.777344 190.628906 L 60.769531 190.625 C 58.722656 188.878906 57.011719 186.742188 55.445312 184.394531 C 53.875 182.046875 52.453125 179.496094 50.960938 176.960938 C 48.117188 172.144531 44.765625 167.257812 40.675781 163.222656 C 36.589844 159.191406 31.726562 155.996094 25.941406 154.734375 L 25.9375 154.734375 C 24.433594 154.414062 22.976562 154.230469 21.683594 153.9375 C 20.386719 153.652344 19.277344 153.261719 18.378906 152.636719 L 18.378906 152.632812 C 17.265625 151.859375 16.476562 150.765625 15.78125 149.359375 C 15.085938 147.957031 14.523438 146.28125 13.84375 144.550781 L 12.21875 145.191406 L 13.964844 145.25 C 15.789062 91.566406 48.714844 45.78125 95.28125 25.328125 L 94.578125 23.730469 L 93.101562 22.796875 C 92.738281 23.367188 92.316406 23.914062 91.875 24.417969 L 91.882812 24.410156 C 89.730469 26.847656 87.238281 28.804688 84.886719 31.128906 C 82.542969 33.445312 80.351562 36.195312 79.117188 40.078125 C 78.445312 42.1875 78.109375 44.394531 78.109375 46.585938 C 78.109375 50.277344 79.0625 53.941406 81.050781 56.996094 C 83.03125 60.042969 86.097656 62.457031 90.109375 63.484375 L 90.113281 63.484375 C 91.730469 63.898438 93.335938 64.070312 94.914062 64.070312 C 96.386719 64.070312 97.832031 63.921875 99.253906 63.679688 C 102.761719 63.074219 106.128906 61.917969 109.40625 60.953125 C 112.679688 59.976562 115.855469 59.195312 118.9375 59.199219 C 119.785156 59.199219 120.628906 59.253906 121.472656 59.382812 L 121.476562 59.382812 C 125.367188 59.964844 128.871094 62.203125 131.425781 65.363281 C 133.980469 68.515625 135.535156 72.558594 135.578125 76.5625 L 135.578125 76.558594 C 135.578125 76.632812 135.578125 76.707031 135.578125 76.78125 C 135.578125 80.792969 134.257812 84.738281 132.003906 88.167969 C 129.753906 91.59375 126.574219 94.484375 122.945312 96.371094 C 119.4375 98.195312 115.300781 99.320312 111.207031 100.757812 C 109.160156 101.480469 107.125 102.285156 105.1875 103.335938 C 103.257812 104.382812 101.421875 105.679688 99.820312 107.371094 C 97.601562 109.714844 96.171875 112.460938 94.832031 115.085938 C 93.5 117.71875 92.246094 120.238281 90.5625 122.261719 C 88.425781 124.847656 85.566406 126.726562 82.367188 128.417969 L 82.363281 128.417969 C 79.898438 129.726562 77.230469 130.910156 74.589844 132.253906 C 71.949219 133.601562 69.328125 135.105469 66.976562 137.097656 C 62.53125 140.867188 59.703125 145.804688 57.738281 151.082031 C 55.769531 156.367188 54.644531 162.019531 53.644531 167.378906 L 53.640625 167.382812 L 55.359375 167.699219 L 57.078125 168.019531 C 58.070312 162.691406 59.175781 157.226562 61.011719 152.304688 C 62.847656 147.375 65.394531 143.019531 69.238281 139.765625 C 71.265625 138.039062 73.640625 136.65625 76.175781 135.371094 C 78.707031 134.082031 81.390625 132.890625 84 131.503906 L 84 131.507812 C 87.371094 129.722656 90.664062 127.617188 93.253906 124.492188 C 95.289062 122.03125 96.625 119.265625 97.949219 116.671875 C 99.265625 114.070312 100.570312 111.652344 102.359375 109.773438 C 103.65625 108.402344 105.164062 107.324219 106.855469 106.40625 C 109.386719 105.03125 112.320312 104.042969 115.367188 103.042969 C 118.414062 102.039062 121.578125 101.015625 124.554688 99.472656 L 124.558594 99.472656 C 128.734375 97.292969 132.339844 94.015625 134.925781 90.085938 C 137.507812 86.160156 139.074219 81.566406 139.074219 76.78125 C 139.074219 76.695312 139.074219 76.609375 139.070312 76.523438 C 139.011719 71.644531 137.164062 66.90625 134.144531 63.164062 C 131.125 59.429688 126.886719 56.664062 121.996094 55.929688 L 122 55.929688 C 120.96875 55.769531 119.945312 55.703125 118.9375 55.703125 C 115.269531 55.707031 111.777344 56.605469 108.410156 57.601562 C 105.046875 58.601562 101.800781 59.699219 98.664062 60.230469 C 97.394531 60.449219 96.144531 60.574219 94.914062 60.574219 C 93.589844 60.574219 92.289062 60.433594 90.976562 60.097656 L 90.984375 60.101562 C 87.824219 59.277344 85.546875 57.476562 83.976562 55.082031 C 82.414062 52.691406 81.601562 49.679688 81.605469 46.585938 C 81.605469 44.753906 81.886719 42.898438 82.449219 41.140625 C 83.472656 37.945312 85.195312 35.753906 87.347656 33.609375 C 89.492188 31.476562 92.074219 29.453125 94.5 26.730469 L 94.507812 26.71875 C 95.046875 26.105469 95.578125 25.417969 96.054688 24.660156 L 99.105469 19.832031 L 93.875 22.128906 C 46.113281 43.105469 12.347656 90.0625 10.472656 145.128906 L 10.457031 145.492188 L 10.589844 145.828125 C 11.230469 147.441406 11.808594 149.203125 12.644531 150.902344 C 13.480469 152.597656 14.613281 154.269531 16.378906 155.5 C 17.832031 156.511719 19.414062 157.011719 20.921875 157.351562 C 22.433594 157.683594 23.898438 157.871094 25.199219 158.152344 C 30.164062 159.234375 34.449219 161.996094 38.21875 165.710938 C 41.984375 169.421875 45.195312 174.066406 47.949219 178.734375 C 49.414062 181.21875 50.863281 183.828125 52.539062 186.335938 C 54.210938 188.839844 56.113281 191.246094 58.503906 193.285156 L 58.496094 193.28125 C 59.386719 194.046875 60.28125 194.707031 61.078125 195.371094 C 61.875 196.027344 62.566406 196.679688 63.101562 197.386719 C 63.898438 198.449219 64.410156 199.726562 64.734375 201.171875 C 65.058594 202.609375 65.1875 204.199219 65.242188 205.800781 L 65.242188 205.792969 C 65.269531 206.75 65.285156 207.71875 65.285156 208.6875 C 65.285156 213.625 64.949219 218.734375 64.949219 223.832031 C 64.949219 227.515625 65.125 231.191406 65.753906 234.796875 C 66.382812 238.402344 67.472656 241.933594 69.300781 245.28125 C 72.683594 251.46875 78.039062 255.988281 83.078125 260.269531 C 92.410156 268.171875 101.757812 276.070312 111.085938 283.96875 L 111.375 284.214844 L 111.738281 284.316406 C 116.1875 285.578125 120.71875 286.628906 125.332031 287.453125 L 126.285156 287.625 L 126.9375 286.90625 C 127.902344 285.832031 128.597656 284.554688 129.070312 283.203125 C 129.539062 281.847656 129.777344 280.417969 129.777344 279.011719 C 129.777344 278.898438 129.777344 278.785156 129.773438 278.675781 C 129.714844 276.460938 129.234375 274.402344 128.734375 272.449219 C 128.234375 270.492188 127.714844 268.628906 127.476562 266.828125 C 127.296875 265.496094 127.261719 264.101562 127.261719 262.660156 C 127.261719 261.738281 127.277344 260.796875 127.277344 259.839844 C 127.273438 257.847656 127.214844 255.777344 126.765625 253.667969 C 126.304688 251.507812 125.484375 249.53125 124.515625 247.671875 C 123.058594 244.882812 121.273438 242.34375 119.746094 239.828125 C 118.214844 237.3125 116.953125 234.832031 116.410156 232.214844 C 116.179688 231.125 116.078125 230.046875 116.078125 228.964844 C 116.074219 225.210938 117.355469 221.382812 119.207031 217.570312 C 120.617188 214.660156 122.351562 211.773438 124.019531 208.945312 C 125.667969 206.164062 127.277344 203.121094 128.492188 199.941406 C 129.707031 196.761719 130.527344 193.4375 130.527344 190.089844 C 130.53125 187.523438 130.035156 184.941406 128.855469 182.488281 C 128.316406 181.359375 127.625 180.269531 126.761719 179.308594 C 125.902344 178.34375 124.867188 177.503906 123.65625 176.898438 L 123.648438 176.894531 C 121.675781 175.929688 119.59375 175.734375 117.675781 175.734375 C 117.117188 175.734375 116.570312 175.75 116.039062 175.777344 C 108.648438 176.109375 101.3125 177.589844 94.367188 180.105469 C 89.03125 182.039062 83.914062 184.59375 79.171875 187.695312 L 79.164062 187.703125 C 78.425781 188.195312 77.726562 188.664062 77.058594 189.03125 C 76.390625 189.394531 75.761719 189.648438 75.152344 189.757812 L 75.160156 189.757812 C 74.890625 189.804688 74.628906 189.828125 74.367188 189.828125 C 73.316406 189.832031 72.210938 189.457031 71.128906 188.777344 C 70.050781 188.105469 69.023438 187.136719 68.191406 186.089844 L 68.1875 186.085938 C 67.210938 184.871094 66.328125 183.46875 65.355469 182.03125 C 64.382812 180.59375 63.320312 179.121094 61.925781 177.816406 L 61.917969 177.8125 C 60.851562 176.828125 59.738281 176.046875 58.851562 175.265625 C 58.410156 174.878906 58.023438 174.5 57.714844 174.117188 C 57.402344 173.734375 57.171875 173.355469 57.007812 172.949219 L 57.003906 172.941406 C 56.789062 172.40625 56.695312 171.804688 56.695312 171.109375 C 56.691406 170.1875 56.871094 169.125 57.078125 168.015625 L 57.078125 168.019531 L 55.359375 167.699219 " fill-opacity="1" fill-rule="nonzero"/><path fill="#64c431" d="M 125.90625 184.503906 C 128.722656 191.503906 125.621094 199.105469 121.148438 206.667969 C 119.484375 209.484375 117.871094 212.414062 116.414062 215.421875 C 107.1875 205.0625 101.519531 196.394531 95.761719 183.507812 C 102.542969 181.050781 107.988281 179.773438 115.199219 179.449219 C 117.492188 179.34375 120.425781 179.324219 122.488281 180.339844 C 124.457031 181.316406 125.085938 182.453125 125.90625 184.503906 " fill-opacity="1" fill-rule="nonzero"/><path fill="#64c431" d="M 135.425781 76.074219 C 135.53125 84.964844 130.957031 92.054688 123.082031 96.15625 C 115.601562 100.035156 106.414062 100.300781 100.621094 106.417969 C 96.617188 110.648438 94.96875 116.957031 91.253906 121.441406 C 88.886719 124.296875 86.507812 126.398438 83.222656 128.132812 C 83.175781 126.757812 83.113281 127.199219 83.113281 125.8125 C 83.113281 102.792969 88.015625 82.953125 98.09375 63.878906 C 105.65625 62.585938 113.859375 58.390625 121.59375 59.566406 C 130.378906 60.882812 135.324219 67.199219 135.425781 76.074219 " fill-opacity="1" fill-rule="nonzero"/><path fill="#64c431" d="M 287.878906 150 C 287.878906 184.835938 274.957031 216.644531 253.648438 240.914062 C 252.644531 240.65625 251.691406 240.261719 250.816406 239.699219 C 244.339844 235.566406 245.398438 226.105469 244.886719 218.4375 C 244.339844 210.144531 240.945312 202.054688 235.425781 195.859375 C 228.855469 188.496094 219.5 183.800781 213.964844 175.632812 C 206.183594 164.167969 208.664062 146.9375 219.359375 138.117188 C 227.292969 131.566406 236.847656 129.902344 246.808594 129.0625 C 253.71875 128.480469 266.105469 127.398438 270.308594 120.558594 C 271.078125 119.300781 271.191406 117.539062 270.21875 116.445312 C 269.050781 115.152344 267.046875 115.28125 265.308594 115.140625 C 260.207031 114.71875 256.027344 111.132812 251.703125 108.371094 C 247.390625 105.609375 241.625 103.617188 237.3125 106.390625 C 233.464844 108.867188 234.144531 111.976562 233.035156 115.839844 C 232.214844 118.699219 228.78125 121.363281 226.3125 118.289062 C 224.34375 115.835938 226.785156 111.667969 227.691406 109.257812 C 229.542969 104.351562 231.078125 96.347656 227.632812 91.722656 C 224.089844 86.96875 219 88.019531 217.144531 93.855469 C 216.539062 95.742188 216.050781 97.757812 214.710938 99.226562 C 212.121094 102.066406 207.21875 101.613281 204.296875 99.132812 C 201.371094 96.640625 200.054688 92.746094 199.367188 88.960938 C 197.421875 78.160156 196.933594 68.792969 193.585938 58.191406 C 191.816406 52.5625 190.21875 45.851562 193.878906 41.226562 C 196.953125 37.347656 202.5 36.636719 207.441406 36.730469 C 212.378906 36.824219 217.625 37.371094 222.003906 35.0625 C 222.785156 34.65625 223.542969 34.15625 224.417969 34.015625 L 224.566406 34.003906 C 262.65625 58.542969 287.878906 101.324219 287.878906 150 " fill-opacity="1" fill-rule="nonzero"/><path fill="#3a0b19" d="M 287.878906 150 L 286.128906 150 C 286.128906 184.402344 273.375 215.792969 252.335938 239.757812 L 253.648438 240.914062 L 254.082031 239.21875 C 253.238281 239.003906 252.460938 238.679688 251.757812 238.226562 C 250.414062 237.367188 249.488281 236.273438 248.785156 234.910156 C 247.722656 232.878906 247.242188 230.214844 247.023438 227.308594 C 246.796875 224.40625 246.828125 221.289062 246.628906 218.320312 C 246.054688 209.628906 242.515625 201.195312 236.730469 194.695312 C 233.289062 190.84375 229.226562 187.78125 225.40625 184.6875 C 221.578125 181.597656 218.003906 178.484375 215.410156 174.652344 C 212.558594 170.453125 211.167969 165.371094 211.167969 160.234375 C 211.167969 156.296875 211.988281 152.335938 213.5625 148.746094 C 215.136719 145.15625 217.464844 141.945312 220.472656 139.464844 C 224.230469 136.367188 228.359375 134.417969 232.808594 133.128906 C 237.257812 131.839844 242.023438 131.21875 246.957031 130.804688 C 250.421875 130.511719 255.339844 130.097656 260.023438 128.847656 C 262.367188 128.21875 264.664062 127.382812 266.707031 126.203125 C 268.746094 125.03125 270.550781 123.496094 271.796875 121.472656 L 271.800781 121.46875 C 272.351562 120.554688 272.660156 119.515625 272.664062 118.425781 C 272.664062 117.890625 272.585938 117.339844 272.402344 116.800781 C 272.21875 116.265625 271.929688 115.738281 271.519531 115.28125 L 271.511719 115.277344 C 271.046875 114.753906 270.484375 114.375 269.925781 114.125 C 269.082031 113.746094 268.246094 113.613281 267.488281 113.535156 C 266.730469 113.460938 266.03125 113.445312 265.453125 113.398438 C 263.277344 113.222656 261.203125 112.351562 259.09375 111.125 C 256.988281 109.898438 254.878906 108.328125 252.644531 106.898438 L 252.644531 106.902344 C 251.128906 105.929688 249.445312 105.042969 247.65625 104.390625 C 245.875 103.738281 243.996094 103.3125 242.089844 103.308594 C 240.136719 103.304688 238.144531 103.777344 236.367188 104.921875 C 235.246094 105.640625 234.378906 106.464844 233.75 107.359375 C 233.273438 108.03125 232.933594 108.730469 232.6875 109.425781 C 232.316406 110.464844 232.136719 111.480469 231.964844 112.457031 C 231.792969 113.4375 231.632812 114.390625 231.355469 115.359375 C 231.171875 116.007812 230.734375 116.734375 230.214844 117.214844 C 229.960938 117.460938 229.691406 117.644531 229.449219 117.757812 C 229.207031 117.871094 229 117.914062 228.828125 117.914062 C 228.667969 117.910156 228.53125 117.882812 228.347656 117.789062 C 228.167969 117.695312 227.941406 117.523438 227.675781 117.199219 C 227.550781 117.039062 227.46875 116.882812 227.40625 116.683594 C 227.347656 116.488281 227.308594 116.25 227.308594 115.960938 C 227.304688 115.199219 227.589844 114.121094 228.011719 113.035156 C 228.429688 111.945312 228.949219 110.863281 229.324219 109.875 C 230.429688 106.933594 231.425781 103.015625 231.429688 99.125 C 231.429688 97.632812 231.28125 96.136719 230.910156 94.707031 C 230.539062 93.273438 229.9375 91.894531 229.03125 90.679688 C 228.164062 89.511719 227.171875 88.59375 226.089844 87.957031 C 225.007812 87.324219 223.824219 86.980469 222.640625 86.980469 C 221.035156 86.976562 219.480469 87.621094 218.257812 88.738281 C 217.023438 89.855469 216.085938 91.414062 215.476562 93.328125 L 215.480469 93.320312 C 215.167969 94.304688 214.902344 95.246094 214.578125 96.054688 C 214.257812 96.867188 213.890625 97.535156 213.417969 98.050781 C 212.996094 98.511719 212.488281 98.847656 211.898438 99.082031 C 211.308594 99.3125 210.632812 99.433594 209.921875 99.433594 C 208.34375 99.441406 206.613281 98.820312 205.425781 97.800781 L 205.429688 97.800781 C 204.210938 96.765625 203.292969 95.40625 202.589844 93.824219 C 201.886719 92.242188 201.410156 90.453125 201.085938 88.648438 L 201.085938 88.652344 C 200.125 83.3125 199.519531 78.292969 198.726562 73.234375 C 197.9375 68.175781 196.960938 63.085938 195.257812 57.667969 C 194.28125 54.585938 193.410156 51.253906 193.417969 48.328125 C 193.417969 47.160156 193.546875 46.066406 193.84375 45.0625 C 194.136719 44.058594 194.585938 43.148438 195.25 42.3125 C 195.839844 41.566406 196.542969 40.960938 197.355469 40.460938 C 198.566406 39.710938 200.027344 39.203125 201.628906 38.894531 C 203.222656 38.582031 204.945312 38.46875 206.640625 38.46875 C 206.898438 38.46875 207.152344 38.472656 207.402344 38.476562 L 207.40625 38.476562 C 209.121094 38.507812 210.917969 38.601562 212.75 38.601562 C 216.082031 38.597656 219.578125 38.308594 222.820312 36.609375 L 222.8125 36.613281 C 223.257812 36.378906 223.628906 36.160156 223.945312 36.007812 C 224.257812 35.855469 224.5 35.769531 224.691406 35.742188 L 224.417969 34.015625 L 224.546875 35.757812 L 224.699219 35.746094 L 224.566406 34.003906 L 223.621094 35.472656 C 261.226562 59.707031 286.132812 101.9375 286.128906 150 L 289.625 150 C 289.625 100.710938 264.078125 57.378906 225.511719 32.535156 L 225.019531 32.21875 L 224.285156 32.273438 L 224.210938 32.277344 L 224.140625 32.289062 C 223.457031 32.398438 222.886719 32.636719 222.40625 32.871094 C 221.929688 33.105469 221.53125 33.339844 221.195312 33.515625 L 221.191406 33.519531 C 218.765625 34.800781 215.886719 35.109375 212.75 35.105469 C 211.035156 35.105469 209.261719 35.015625 207.472656 34.984375 L 207.476562 34.984375 C 207.199219 34.976562 206.917969 34.976562 206.640625 34.976562 C 204.171875 34.976562 201.554688 35.183594 199.078125 35.921875 C 197.839844 36.292969 196.636719 36.796875 195.519531 37.488281 C 194.398438 38.175781 193.371094 39.054688 192.507812 40.140625 C 191.550781 41.351562 190.894531 42.695312 190.492188 44.082031 C 190.082031 45.46875 189.917969 46.898438 189.917969 48.328125 C 189.925781 51.917969 190.921875 55.523438 191.921875 58.714844 C 193.554688 63.898438 194.496094 68.792969 195.273438 73.773438 C 196.050781 78.75 196.664062 83.808594 197.644531 89.269531 L 197.644531 89.273438 C 198.007812 91.257812 198.535156 93.304688 199.394531 95.242188 C 200.25 97.175781 201.453125 99.003906 203.160156 100.460938 L 203.164062 100.464844 C 205.050781 102.054688 207.484375 102.921875 209.921875 102.929688 C 211.023438 102.925781 212.128906 102.746094 213.171875 102.335938 C 214.214844 101.929688 215.199219 101.289062 216.003906 100.402344 L 216 100.402344 C 216.871094 99.449219 217.417969 98.375 217.828125 97.339844 C 218.238281 96.304688 218.519531 95.289062 218.8125 94.390625 L 218.8125 94.382812 C 219.269531 92.941406 219.929688 91.9375 220.601562 91.328125 C 221.285156 90.722656 221.945312 90.480469 222.640625 90.476562 C 223.152344 90.476562 223.710938 90.617188 224.324219 90.976562 C 224.933594 91.332031 225.59375 91.914062 226.230469 92.765625 C 226.820312 93.558594 227.246094 94.503906 227.527344 95.582031 C 227.808594 96.660156 227.9375 97.867188 227.9375 99.125 C 227.945312 102.40625 227.046875 106.027344 226.054688 108.640625 L 226.054688 108.644531 C 225.773438 109.402344 225.230469 110.535156 224.746094 111.789062 C 224.269531 113.050781 223.824219 114.449219 223.816406 115.960938 C 223.816406 116.53125 223.886719 117.121094 224.0625 117.707031 C 224.246094 118.292969 224.535156 118.871094 224.949219 119.386719 C 225.464844 120.027344 226.0625 120.542969 226.734375 120.890625 C 227.398438 121.238281 228.128906 121.410156 228.828125 121.410156 C 229.589844 121.410156 230.300781 121.21875 230.933594 120.921875 C 231.886719 120.472656 232.671875 119.792969 233.308594 119.003906 C 233.945312 118.210938 234.433594 117.304688 234.714844 116.324219 C 235.023438 115.253906 235.199219 114.265625 235.351562 113.382812 C 235.578125 112.058594 235.773438 111 236.152344 110.167969 C 236.34375 109.75 236.574219 109.375 236.898438 109 C 237.226562 108.628906 237.65625 108.246094 238.257812 107.863281 C 239.40625 107.125 240.671875 106.808594 242.089844 106.804688 C 243.460938 106.804688 244.964844 107.121094 246.457031 107.671875 C 247.949219 108.21875 249.425781 108.988281 250.757812 109.84375 L 250.761719 109.84375 C 252.851562 111.175781 254.996094 112.78125 257.335938 114.144531 C 259.671875 115.503906 262.238281 116.640625 265.167969 116.882812 L 265.171875 116.882812 C 266.132812 116.957031 267.019531 116.964844 267.683594 117.082031 C 268.015625 117.140625 268.285156 117.214844 268.476562 117.308594 C 268.675781 117.398438 268.800781 117.492188 268.917969 117.617188 L 268.910156 117.609375 C 268.988281 117.695312 269.046875 117.796875 269.09375 117.929688 C 269.140625 118.066406 269.167969 118.234375 269.167969 118.425781 C 269.175781 118.816406 269.039062 119.292969 268.816406 119.648438 L 268.820312 119.644531 C 267.964844 121.039062 266.640625 122.207031 264.960938 123.175781 C 262.445312 124.632812 259.152344 125.589844 255.851562 126.203125 C 252.546875 126.820312 249.246094 127.105469 246.664062 127.324219 C 241.632812 127.746094 236.640625 128.382812 231.839844 129.769531 C 227.039062 131.160156 222.425781 133.320312 218.246094 136.769531 C 214.78125 139.628906 212.136719 143.296875 210.363281 147.339844 C 208.585938 151.386719 207.671875 155.816406 207.671875 160.234375 C 207.671875 165.996094 209.226562 171.761719 212.519531 176.617188 C 215.460938 180.949219 219.328125 184.265625 223.207031 187.40625 C 227.089844 190.542969 230.992188 193.507812 234.121094 197.023438 C 239.378906 202.917969 242.625 210.65625 243.140625 218.550781 C 243.398438 222.265625 243.246094 226.59375 243.890625 230.667969 C 244.210938 232.707031 244.742188 234.695312 245.675781 236.515625 C 246.609375 238.328125 247.980469 239.96875 249.875 241.175781 L 249.875 241.171875 C 250.917969 241.84375 252.050781 242.308594 253.214844 242.605469 L 254.253906 242.871094 L 254.960938 242.066406 C 276.539062 217.496094 289.625 185.273438 289.625 150 L 287.878906 150 " fill-opacity="1" fill-rule="nonzero"/><path fill="#64c431" d="M 147.652344 30.859375 C 146.390625 31.460938 144.867188 32.097656 144.574219 33.464844 C 144.328125 34.613281 145.152344 35.761719 146.175781 36.335938 C 148.230469 37.496094 150.871094 36.898438 152.898438 35.691406 C 154.929688 34.488281 156.589844 32.753906 158.554688 31.445312 C 161.363281 29.578125 165.226562 27.933594 165.347656 24.566406 C 165.421875 22.507812 163.816406 20.644531 161.875 19.945312 C 158.804688 18.839844 155.796875 21.71875 154.222656 24.027344 C 152.242188 26.929688 151.074219 29.21875 147.652344 30.859375 " fill-opacity="1" fill-rule="nonzero"/><path fill="#3a0b19" d="M 147.652344 30.859375 L 146.894531 29.285156 C 146.296875 29.574219 145.515625 29.90625 144.742188 30.449219 C 144.359375 30.722656 143.964844 31.054688 143.621094 31.492188 C 143.28125 31.925781 142.996094 32.480469 142.867188 33.097656 C 142.808594 33.359375 142.78125 33.621094 142.78125 33.878906 C 142.785156 34.820312 143.125 35.640625 143.585938 36.296875 C 144.050781 36.957031 144.640625 37.476562 145.3125 37.859375 C 146.386719 38.464844 147.558594 38.707031 148.675781 38.707031 C 150.546875 38.703125 152.304688 38.074219 153.789062 37.195312 C 154.945312 36.511719 155.929688 35.714844 156.859375 34.960938 C 157.785156 34.199219 158.648438 33.480469 159.523438 32.898438 C 160.820312 32.03125 162.53125 31.140625 164.050781 29.933594 C 164.808594 29.324219 165.53125 28.625 166.097656 27.746094 C 166.667969 26.871094 167.054688 25.800781 167.09375 24.628906 L 167.09375 24.625 L 167.097656 24.425781 C 167.097656 22.957031 166.523438 21.632812 165.6875 20.59375 C 164.84375 19.554688 163.730469 18.757812 162.46875 18.300781 C 161.8125 18.0625 161.136719 17.953125 160.484375 17.953125 C 159.574219 17.953125 158.714844 18.164062 157.9375 18.492188 C 156.773438 18.980469 155.773438 19.71875 154.917969 20.527344 C 154.058594 21.332031 153.34375 22.214844 152.777344 23.046875 C 151.757812 24.546875 150.988281 25.792969 150.144531 26.785156 C 149.292969 27.78125 148.390625 28.5625 146.894531 29.28125 L 147.652344 30.859375 L 148.40625 32.4375 C 150.335938 31.515625 151.726562 30.335938 152.808594 29.050781 C 153.898438 27.761719 154.703125 26.417969 155.664062 25.015625 C 156.246094 24.160156 157.078125 23.195312 157.964844 22.511719 C 158.40625 22.167969 158.859375 21.890625 159.289062 21.710938 C 159.71875 21.53125 160.117188 21.449219 160.484375 21.449219 C 160.753906 21.449219 161.007812 21.492188 161.285156 21.589844 C 161.917969 21.8125 162.542969 22.257812 162.960938 22.785156 C 163.386719 23.316406 163.605469 23.894531 163.601562 24.425781 L 163.601562 24.503906 L 163.601562 24.5 C 163.578125 25.011719 163.441406 25.410156 163.160156 25.851562 C 162.746094 26.507812 161.945312 27.207031 160.929688 27.886719 C 159.917969 28.574219 158.722656 29.238281 157.589844 29.988281 C 156.5 30.714844 155.550781 31.515625 154.644531 32.253906 C 153.742188 32.996094 152.882812 33.671875 152.007812 34.191406 C 150.960938 34.816406 149.710938 35.21875 148.675781 35.214844 C 148.050781 35.210938 147.507812 35.082031 147.035156 34.816406 C 146.808594 34.691406 146.578125 34.484375 146.445312 34.289062 C 146.308594 34.09375 146.277344 33.941406 146.277344 33.878906 L 146.285156 33.832031 C 146.300781 33.769531 146.3125 33.730469 146.378906 33.640625 C 146.472656 33.511719 146.714844 33.308594 147.082031 33.097656 C 147.441406 32.886719 147.910156 32.671875 148.40625 32.4375 L 147.652344 30.859375 " fill-opacity="1" fill-rule="nonzero"/><path fill="#47bb3a" d="M 79.375 169.617188 C 78.820312 168.578125 77.464844 168.128906 76.316406 168.398438 C 75.699219 168.546875 75.117188 168.867188 74.484375 168.886719 C 71.765625 168.960938 72.027344 163.714844 69.597656 163.824219 C 68.410156 163.878906 66.308594 167.34375 66.304688 168.398438 C 66.289062 170.867188 69.289062 172.6875 71.484375 172.621094 C 72.957031 172.578125 74.40625 171.90625 75.867188 172.132812 C 76.664062 172.257812 77.453125 172.644531 78.234375 172.464844 C 79.386719 172.199219 79.933594 170.660156 79.375 169.617188 " fill-opacity="1" fill-rule="nonzero"/><path fill="#3a0b19" d="M 79.375 169.617188 L 80.917969 168.796875 C 80.507812 168.023438 79.871094 167.460938 79.1875 167.105469 C 78.5 166.746094 77.75 166.574219 76.996094 166.574219 C 76.636719 166.574219 76.273438 166.613281 75.90625 166.699219 L 75.914062 166.699219 C 75.445312 166.8125 75.101562 166.953125 74.855469 167.035156 C 74.605469 167.117188 74.46875 167.140625 74.433594 167.140625 L 74.449219 167.140625 L 74.425781 167.140625 L 74.398438 167.136719 L 74.394531 167.164062 L 74.40625 167.140625 L 74.398438 167.136719 L 74.394531 167.164062 L 74.40625 167.140625 C 74.40625 167.140625 74.367188 167.117188 74.296875 167.035156 C 74.167969 166.902344 73.972656 166.589844 73.777344 166.175781 C 73.472656 165.550781 73.175781 164.734375 72.660156 163.910156 C 72.398438 163.496094 72.070312 163.0625 71.566406 162.695312 C 71.074219 162.328125 70.375 162.066406 69.667969 162.074219 L 69.484375 162.082031 L 69.597656 163.824219 L 69.515625 162.078125 C 68.953125 162.109375 68.546875 162.300781 68.21875 162.492188 C 67.648438 162.839844 67.238281 163.257812 66.839844 163.71875 C 66.253906 164.410156 65.738281 165.203125 65.332031 165.972656 C 65.128906 166.359375 64.957031 166.738281 64.820312 167.113281 C 64.75 167.304688 64.691406 167.492188 64.644531 167.695312 C 64.597656 167.902344 64.558594 168.117188 64.554688 168.386719 L 66.304688 168.398438 L 64.558594 168.332031 L 64.554688 168.414062 C 64.554688 169.367188 64.847656 170.253906 65.289062 170.988281 C 65.957031 172.09375 66.929688 172.902344 67.980469 173.46875 C 69.039062 174.03125 70.191406 174.363281 71.367188 174.371094 L 71.535156 174.371094 C 72.378906 174.34375 73.105469 174.175781 73.722656 174.050781 C 74.339844 173.917969 74.851562 173.828125 75.238281 173.832031 C 75.371094 173.832031 75.488281 173.839844 75.59375 173.859375 L 75.597656 173.859375 C 75.769531 173.882812 76.046875 173.957031 76.40625 174.054688 C 76.769531 174.140625 77.230469 174.257812 77.804688 174.257812 C 78.066406 174.257812 78.339844 174.234375 78.617188 174.167969 L 78.628906 174.167969 C 79.542969 173.957031 80.253906 173.375 80.683594 172.71875 C 81.121094 172.0625 81.339844 171.3125 81.34375 170.53125 C 81.34375 169.957031 81.21875 169.359375 80.917969 168.796875 L 79.375 169.617188 L 77.835938 170.441406 L 77.839844 170.460938 L 77.847656 170.53125 C 77.851562 170.613281 77.8125 170.738281 77.777344 170.777344 L 77.761719 170.796875 L 77.773438 170.804688 L 77.765625 170.796875 L 77.761719 170.796875 L 77.773438 170.804688 L 77.765625 170.796875 L 77.886719 170.949219 L 77.84375 170.761719 L 77.765625 170.796875 L 77.886719 170.949219 L 77.84375 170.761719 L 77.855469 170.757812 L 77.804688 170.765625 C 77.738281 170.765625 77.554688 170.738281 77.269531 170.664062 C 76.988281 170.59375 76.613281 170.480469 76.136719 170.40625 L 76.140625 170.40625 C 75.828125 170.355469 75.523438 170.335938 75.238281 170.335938 C 74.378906 170.339844 73.644531 170.5 73.011719 170.628906 C 72.378906 170.761719 71.847656 170.863281 71.429688 170.875 L 71.445312 170.875 L 71.367188 170.875 C 71.0625 170.875 70.652344 170.804688 70.242188 170.660156 C 69.625 170.441406 69.003906 170.046875 68.609375 169.617188 C 68.414062 169.402344 68.269531 169.1875 68.179688 168.988281 C 68.089844 168.785156 68.050781 168.605469 68.050781 168.414062 L 66.695312 168.414062 L 68.050781 168.464844 L 68.050781 168.414062 L 66.695312 168.414062 L 68.050781 168.464844 L 68.050781 168.40625 L 67.535156 168.40625 L 68.042969 168.503906 C 68.042969 168.503906 68.050781 168.484375 68.050781 168.40625 L 67.535156 168.40625 L 68.042969 168.503906 C 68.046875 168.492188 68.070312 168.386719 68.125 168.253906 C 68.304688 167.761719 68.789062 166.890625 69.269531 166.269531 C 69.507812 165.957031 69.75 165.699219 69.902344 165.574219 L 69.988281 165.507812 L 70.011719 165.492188 L 69.640625 164.835938 L 69.675781 165.570312 C 69.921875 165.554688 70.007812 165.492188 70.011719 165.492188 L 69.640625 164.835938 L 69.675781 165.570312 L 69.707031 165.566406 L 69.667969 164.972656 L 69.667969 165.570312 L 69.707031 165.566406 L 69.667969 164.972656 L 69.667969 165.570312 L 69.667969 165.273438 L 69.515625 165.523438 L 69.667969 165.570312 L 69.667969 165.273438 L 69.515625 165.523438 L 69.558594 165.453125 L 69.507812 165.519531 L 69.515625 165.523438 L 69.558594 165.453125 L 69.507812 165.519531 C 69.511719 165.519531 69.5625 165.566406 69.636719 165.671875 C 69.773438 165.859375 69.957031 166.214844 70.15625 166.652344 C 70.460938 167.308594 70.777344 168.132812 71.355469 168.949219 C 71.648438 169.355469 72.027344 169.773438 72.550781 170.101562 C 73.070312 170.433594 73.746094 170.640625 74.425781 170.632812 L 74.53125 170.632812 C 75.132812 170.613281 75.605469 170.464844 75.960938 170.347656 C 76.316406 170.226562 76.570312 170.132812 76.71875 170.101562 L 76.726562 170.101562 C 76.800781 170.078125 76.894531 170.070312 76.996094 170.070312 C 77.203125 170.066406 77.417969 170.125 77.570312 170.203125 C 77.722656 170.285156 77.796875 170.371094 77.835938 170.441406 L 79.375 169.617188 " fill-opacity="1" fill-rule="nonzero"/></svg>