<svg xmlns="http://www.w3.org/2000/svg" xmlns:xlink="http://www.w3.org/1999/xlink" width="500" zoomAndPan="magnify" viewBox="0 0 375 374.999991" height="500" preserveAspectRatio="xMidYMid meet" version="1.0"><defs><clipPath id="2feb730252"><path d="M 48.808594 39.328125 L 345.058594 39.328125 L 345.058594 335.578125 L 48.808594 335.578125 Z M 48.808594 39.328125 " clip-rule="nonzero"/></clipPath></defs><g clip-path="url(#2feb730252)"><path fill="#227fbb" d="M 345.058594 187.453125 C 345.058594 269.230469 278.710938 335.578125 196.933594 335.578125 C 115.15625 335.578125 48.808594 269.230469 48.808594 187.453125 C 48.808594 105.675781 115.15625 39.328125 196.933594 39.328125 C 278.710938 39.328125 345.058594 105.675781 345.058594 187.453125 Z M 345.058594 187.453125 " fill-opacity="1" fill-rule="evenodd"/></g><path fill="#ffffff" d="M 88.367188 241.386719 C 108.214844 281.222656 149.382812 308.644531 196.933594 308.644531 C 244.554688 308.644531 285.726562 281.222656 305.574219 241.316406 C 307.675781 236.96875 263.84375 200.917969 196.933594 200.917969 C 130.027344 200.917969 86.191406 236.96875 88.367188 241.386719 Z M 88.367188 241.386719 " fill-opacity="1" fill-rule="evenodd"/><path fill="#ffffff" d="M 250.796875 120.125 C 250.796875 149.859375 226.671875 173.988281 196.933594 173.988281 C 167.199219 173.988281 143.070312 149.859375 143.070312 120.125 C 143.070312 90.386719 167.199219 66.261719 196.933594 66.261719 C 226.671875 66.261719 250.796875 90.386719 250.796875 120.125 Z M 250.796875 120.125 " fill-opacity="1" fill-rule="evenodd"/></svg>