<svg xmlns="http://www.w3.org/2000/svg" xmlns:xlink="http://www.w3.org/1999/xlink" width="200" zoomAndPan="magnify" viewBox="0 0 150 149.999998" height="200" preserveAspectRatio="xMidYMid meet" version="1.0"><defs><clipPath id="55871ae2af"><path d="M 4.105469 16 L 145.855469 16 L 145.855469 136 L 4.105469 136 Z M 4.105469 16 " clip-rule="nonzero"/></clipPath></defs><g clip-path="url(#55871ae2af)"><path fill="#76bed0" d="M 136.328125 16.832031 L 7.109375 67.289062 C 6.652344 67.46875 6.234375 67.714844 5.855469 68.023438 C 5.476562 68.335938 5.152344 68.695312 4.886719 69.105469 C 4.617188 69.519531 4.421875 69.960938 4.292969 70.433594 C 4.164062 70.90625 4.109375 71.386719 4.128906 71.875 C 4.148438 72.367188 4.246094 72.839844 4.414062 73.300781 C 4.582031 73.761719 4.816406 74.183594 5.117188 74.570312 C 5.417969 74.957031 5.769531 75.289062 6.175781 75.566406 C 6.578125 75.84375 7.015625 76.054688 7.484375 76.195312 L 31.855469 83.308594 C 33.160156 83.695312 34.398438 84.230469 35.570312 84.917969 C 36.742188 85.609375 37.8125 86.429688 38.785156 87.382812 C 39.753906 88.332031 40.59375 89.390625 41.304688 90.550781 C 42.015625 91.707031 42.574219 92.9375 42.984375 94.234375 L 52.59375 124.710938 C 52.667969 124.941406 52.753906 125.167969 52.855469 125.386719 C 52.957031 125.609375 53.070312 125.824219 53.203125 126.027344 C 53.332031 126.234375 53.472656 126.429688 53.625 126.617188 C 53.78125 126.804688 53.949219 126.980469 54.125 127.148438 C 54.300781 127.3125 54.488281 127.46875 54.6875 127.609375 C 54.882812 127.75 55.089844 127.878906 55.304688 127.992188 C 55.519531 128.109375 55.738281 128.210938 55.964844 128.296875 C 56.191406 128.382812 56.425781 128.453125 56.660156 128.511719 C 56.898438 128.566406 57.136719 128.605469 57.378906 128.632812 C 57.621094 128.660156 57.863281 128.667969 58.105469 128.660156 C 58.347656 128.65625 58.589844 128.632812 58.828125 128.597656 C 59.070312 128.558594 59.304688 128.507812 59.539062 128.441406 C 59.773438 128.371094 60 128.289062 60.222656 128.191406 C 60.445312 128.09375 60.660156 127.984375 60.867188 127.859375 C 61.078125 127.730469 61.277344 127.59375 61.464844 127.441406 C 61.65625 127.292969 61.835938 127.128906 62.003906 126.953125 L 75.226562 113.457031 C 75.484375 113.191406 75.761719 112.953125 76.066406 112.738281 C 76.367188 112.523438 76.6875 112.335938 77.019531 112.179688 C 77.355469 112.019531 77.703125 111.894531 78.058594 111.800781 C 78.417969 111.703125 78.78125 111.640625 79.152344 111.613281 C 79.519531 111.582031 79.890625 111.585938 80.257812 111.621094 C 80.625 111.65625 80.988281 111.726562 81.34375 111.828125 C 81.703125 111.929688 82.046875 112.0625 82.378906 112.226562 C 82.710938 112.390625 83.027344 112.582031 83.324219 112.800781 L 112.3125 134.070312 C 112.542969 134.238281 112.789062 134.390625 113.039062 134.527344 C 113.292969 134.667969 113.550781 134.789062 113.820312 134.894531 C 114.085938 135 114.359375 135.089844 114.636719 135.160156 C 114.917969 135.234375 115.199219 135.289062 115.484375 135.324219 C 115.769531 135.363281 116.054688 135.382812 116.34375 135.382812 C 116.628906 135.386719 116.917969 135.367188 117.203125 135.335938 C 117.488281 135.300781 117.769531 135.25 118.050781 135.179688 C 118.328125 135.113281 118.601562 135.027344 118.871094 134.921875 C 119.140625 134.820312 119.402344 134.703125 119.65625 134.566406 C 119.910156 134.429688 120.152344 134.28125 120.390625 134.113281 C 120.625 133.949219 120.847656 133.769531 121.0625 133.578125 C 121.273438 133.382812 121.472656 133.179688 121.660156 132.960938 C 121.847656 132.742188 122.023438 132.511719 122.183594 132.273438 C 122.339844 132.035156 122.484375 131.785156 122.613281 131.527344 C 122.742188 131.269531 122.851562 131.007812 122.949219 130.734375 C 123.042969 130.464844 123.125 130.1875 123.183594 129.90625 L 145.234375 24.425781 C 145.363281 23.839844 145.410156 23.246094 145.378906 22.644531 C 145.34375 22.046875 145.234375 21.460938 145.039062 20.890625 C 144.847656 20.320312 144.585938 19.789062 144.25 19.289062 C 143.910156 18.792969 143.515625 18.347656 143.058594 17.960938 C 142.601562 17.570312 142.097656 17.246094 141.554688 16.992188 C 141.011719 16.738281 140.441406 16.5625 139.847656 16.464844 C 139.257812 16.363281 138.660156 16.347656 138.0625 16.410156 C 137.464844 16.472656 136.886719 16.613281 136.328125 16.832031 Z M 120.257812 39.539062 L 76.664062 78.164062 C 75.425781 79.234375 74.425781 80.492188 73.660156 81.933594 C 72.894531 83.378906 72.414062 84.914062 72.222656 86.539062 C 72.179688 86.875 72.082031 87.195312 71.929688 87.5 C 71.773438 87.804688 71.578125 88.074219 71.332031 88.308594 C 71.085938 88.546875 70.808594 88.734375 70.5 88.878906 C 70.191406 89.019531 69.867188 89.109375 69.53125 89.140625 C 69.191406 89.171875 68.855469 89.148438 68.527344 89.066406 C 68.195312 88.984375 67.890625 88.851562 67.605469 88.664062 C 67.320312 88.480469 67.074219 88.25 66.867188 87.980469 C 66.660156 87.710938 66.5 87.417969 66.394531 87.09375 L 64.402344 80.710938 C 64.230469 80.15625 64.105469 79.585938 64.027344 79.011719 C 63.949219 78.433594 63.917969 77.855469 63.933594 77.273438 C 63.949219 76.691406 64.015625 76.113281 64.128906 75.542969 C 64.238281 74.972656 64.398438 74.414062 64.601562 73.867188 C 64.804688 73.324219 65.054688 72.796875 65.34375 72.292969 C 65.632812 71.789062 65.964844 71.3125 66.332031 70.863281 C 66.703125 70.410156 67.105469 69.996094 67.542969 69.609375 C 67.980469 69.226562 68.449219 68.882812 68.941406 68.574219 L 118.792969 37.695312 C 119.058594 37.582031 119.328125 37.5625 119.605469 37.640625 C 119.882812 37.71875 120.101562 37.875 120.269531 38.109375 C 120.433594 38.347656 120.503906 38.609375 120.484375 38.894531 C 120.464844 39.179688 120.355469 39.429688 120.15625 39.636719 Z M 120.257812 39.539062 " fill-opacity="1" fill-rule="nonzero"/></g></svg>