<svg xmlns="http://www.w3.org/2000/svg" xmlns:xlink="http://www.w3.org/1999/xlink" width="300" zoomAndPan="magnify" viewBox="0 0 224.87999 149.999998" height="200" preserveAspectRatio="xMidYMid meet" version="1.0"><defs><clipPath id="d44ff2e535"><path d="M 0 0.0390625 L 224.761719 0.0390625 L 224.761719 149.960938 L 0 149.960938 Z M 0 0.0390625 " clip-rule="nonzero"/></clipPath><clipPath id="4f03cd5754"><path d="M 12 8 L 212.777344 8 L 212.777344 142.464844 L 12 142.464844 Z M 12 8 " clip-rule="nonzero"/></clipPath></defs><g clip-path="url(#d44ff2e535)"><path fill="#ffffff" d="M 0 0.0390625 L 224.878906 0.0390625 L 224.878906 149.960938 L 0 149.960938 Z M 0 0.0390625 " fill-opacity="1" fill-rule="nonzero"/><path fill="#ffffff" d="M 0 0.0390625 L 224.878906 0.0390625 L 224.878906 149.960938 L 0 149.960938 Z M 0 0.0390625 " fill-opacity="1" fill-rule="nonzero"/></g><path fill="#aaa7a7" d="M 210.265625 112.464844 L 202.59375 132.714844 C 202.398438 133.230469 202.082031 133.660156 201.644531 134 C 201.210938 134.335938 200.714844 134.535156 200.167969 134.59375 C 190.867188 135.597656 181.285156 136.503906 171.417969 137.3125 C 155.980469 138.539062 139.875 139.464844 123.125 139.988281 C 116.597656 140.1875 109.972656 140.328125 103.253906 140.410156 C 72.496094 140.753906 43.695312 139.652344 17.132812 137.652344 C 16.53125 137.605469 15.996094 137.394531 15.523438 137.019531 C 15.050781 136.640625 14.726562 136.164062 14.550781 135.585938 C 14.460938 135.316406 14.417969 135.035156 14.417969 134.75 C 14.355469 127.761719 14.289062 120.769531 14.21875 113.773438 C 14.167969 109.300781 14.132812 104.828125 14.105469 100.363281 C 14.101562 99.824219 14.234375 99.324219 14.503906 98.859375 C 18.375 92.175781 22.25 85.515625 26.125 78.882812 C 26.394531 78.417969 26.527344 77.917969 26.523438 77.378906 C 26.523438 73.125 26.523438 68.871094 26.523438 64.621094 C 26.519531 64.058594 26.664062 63.539062 26.960938 63.0625 C 31.136719 56.304688 35.378906 49.570312 39.679688 42.863281 C 45.46875 33.804688 51.34375 24.804688 57.304688 15.859375 C 57.5625 15.46875 57.898438 15.160156 58.308594 14.929688 C 58.714844 14.699219 59.152344 14.574219 59.621094 14.554688 C 70.558594 14.09375 82.214844 13.699219 94.527344 13.425781 C 109.765625 13.078125 117.742188 13.097656 128.140625 14.738281 C 133.128906 15.527344 138.058594 16.589844 142.925781 17.925781 C 143.554688 18.097656 144.171875 18.0625 144.78125 17.824219 L 163.804688 10.335938 C 164.160156 10.199219 164.527344 10.132812 164.910156 10.136719 C 165.289062 10.140625 165.65625 10.214844 166.007812 10.363281 C 166.359375 10.507812 166.671875 10.714844 166.941406 10.980469 C 167.214844 11.25 167.425781 11.558594 167.578125 11.90625 C 181.796875 44.6875 196.011719 77.46875 210.226562 110.25 C 210.375 110.589844 210.457031 110.945312 210.472656 111.3125 C 210.480469 111.710938 210.410156 112.09375 210.265625 112.464844 Z M 210.265625 112.464844 " fill-opacity="1" fill-rule="nonzero"/><g clip-path="url(#4f03cd5754)"><path fill="#161616" d="M 92.199219 142.464844 C 67.164062 142.464844 41.917969 141.515625 17 139.640625 C 16.382812 139.59375 15.796875 139.4375 15.242188 139.167969 C 14.683594 138.902344 14.195312 138.542969 13.773438 138.089844 C 13.351562 137.640625 13.027344 137.125 12.796875 136.554688 C 12.566406 135.980469 12.449219 135.382812 12.441406 134.765625 C 12.375 127.773438 12.308594 120.785156 12.242188 113.792969 L 12.113281 100.363281 C 12.109375 99.464844 12.332031 98.628906 12.78125 97.855469 C 15.1875 93.734375 17.585938 89.613281 19.984375 85.484375 L 24.402344 77.898438 C 24.488281 77.75 24.53125 77.589844 24.535156 77.421875 L 24.503906 65.320312 L 24.503906 64.660156 C 24.5 63.71875 24.746094 62.847656 25.246094 62.046875 C 29.394531 55.34375 33.679688 48.515625 37.980469 41.808594 C 43.742188 32.789062 49.679688 23.695312 55.625 14.773438 C 56.0625 14.117188 56.625 13.597656 57.308594 13.210938 C 57.996094 12.824219 58.730469 12.617188 59.515625 12.582031 C 71.117188 12.082031 82.875 11.710938 94.460938 11.449219 C 109.980469 11.101562 117.867188 11.121094 128.433594 12.789062 C 133.5 13.585938 138.507812 14.664062 143.453125 16.023438 C 143.652344 16.078125 143.851562 16.070312 144.042969 15.992188 L 163.070312 8.503906 C 163.363281 8.386719 163.667969 8.296875 163.980469 8.242188 C 164.289062 8.183594 164.605469 8.152344 164.921875 8.15625 C 165.238281 8.160156 165.550781 8.191406 165.859375 8.253906 C 166.171875 8.316406 166.472656 8.410156 166.765625 8.53125 C 167.058594 8.652344 167.335938 8.800781 167.597656 8.976562 C 167.863281 9.152344 168.109375 9.351562 168.332031 9.574219 C 168.558594 9.796875 168.761719 10.039062 168.9375 10.300781 C 169.117188 10.5625 169.269531 10.839844 169.394531 11.128906 C 183.605469 43.886719 197.820312 76.664062 212.039062 109.457031 C 212.570312 110.683594 212.601562 111.921875 212.128906 113.171875 L 211.976562 113.570312 C 209.472656 120.183594 206.96875 126.800781 204.46875 133.421875 C 204.308594 133.847656 204.09375 134.246094 203.820312 134.609375 C 203.550781 134.976562 203.234375 135.300781 202.875 135.578125 C 202.515625 135.855469 202.125 136.082031 201.703125 136.25 C 201.28125 136.421875 200.84375 136.53125 200.390625 136.578125 C 190.820312 137.621094 181.128906 138.535156 171.585938 139.296875 C 155.566406 140.574219 139.28125 141.480469 123.199219 141.984375 C 116.597656 142.1875 109.898438 142.328125 103.28125 142.402344 C 99.601562 142.445312 95.90625 142.464844 92.199219 142.464844 Z M 106.878906 15.238281 C 103.292969 15.238281 99.28125 15.308594 94.550781 15.414062 C 82.988281 15.675781 71.257812 16.058594 59.6875 16.546875 C 59.609375 16.550781 59.53125 16.5625 59.457031 16.582031 C 59.246094 16.652344 59.078125 16.78125 58.957031 16.96875 C 53.027344 25.871094 47.105469 34.941406 41.355469 43.933594 C 37.066406 50.644531 32.789062 57.46875 28.648438 64.128906 C 28.554688 64.28125 28.503906 64.449219 28.503906 64.628906 L 28.503906 65.277344 C 28.503906 69.3125 28.503906 73.347656 28.503906 77.375 C 28.507812 78.273438 28.285156 79.109375 27.832031 79.882812 L 23.417969 87.46875 L 16.222656 99.859375 C 16.132812 100.015625 16.089844 100.183594 16.097656 100.363281 L 16.222656 113.785156 C 16.292969 120.773438 16.359375 127.765625 16.425781 134.761719 C 16.425781 134.851562 16.4375 134.941406 16.46875 135.027344 C 16.523438 135.210938 16.628906 135.367188 16.78125 135.488281 C 16.929688 135.609375 17.105469 135.679688 17.296875 135.691406 C 45.777344 137.835938 74.6875 138.765625 103.226562 138.445312 C 109.816406 138.367188 116.484375 138.230469 123.066406 138.023438 C 139.085938 137.523438 155.292969 136.625 171.257812 135.351562 C 180.769531 134.59375 190.417969 133.683594 199.953125 132.644531 C 200.335938 132.605469 200.597656 132.402344 200.734375 132.039062 C 203.238281 125.421875 205.742188 118.804688 208.242188 112.183594 L 208.394531 111.789062 C 208.4375 111.667969 208.457031 111.546875 208.453125 111.417969 C 208.449219 111.300781 208.421875 111.1875 208.375 111.078125 C 194.160156 78.292969 179.945312 45.511719 165.722656 12.730469 C 165.625 12.492188 165.457031 12.328125 165.21875 12.230469 C 164.984375 12.132812 164.75 12.132812 164.511719 12.226562 L 145.484375 19.710938 C 144.46875 20.109375 143.433594 20.164062 142.382812 19.875 C 137.582031 18.550781 132.71875 17.496094 127.800781 16.707031 C 120.746094 15.59375 114.859375 15.238281 106.878906 15.238281 Z M 210.265625 112.476562 Z M 210.265625 112.476562 " fill-opacity="1" fill-rule="nonzero"/></g><path fill="#161616" d="M 210.265625 112.464844 L 202.59375 132.714844 C 202.398438 133.230469 202.082031 133.660156 201.644531 134 C 201.210938 134.335938 200.714844 134.535156 200.167969 134.59375 C 190.867188 135.597656 181.285156 136.503906 171.417969 137.3125 C 184.683594 129.03125 197.699219 120.367188 210.472656 111.3125 C 210.480469 111.710938 210.410156 112.09375 210.265625 112.464844 Z M 210.265625 112.464844 " fill-opacity="0.15" fill-rule="nonzero"/><path fill="#161616" d="M 61.167969 28.222656 C 60.742188 31.230469 59.316406 33.96875 57.949219 36.671875 C 50.832031 50.796875 44.777344 66.746094 48.507812 82.140625 C 49.082031 84.53125 49.902344 86.917969 49.828125 89.375 C 49.753906 91.832031 48.863281 94.019531 47.980469 96.230469 C 45.914062 101.394531 43.847656 106.558594 41.78125 111.730469 C 41.140625 113.519531 40.304688 115.214844 39.277344 116.816406 C 37.808594 118.933594 35.722656 120.535156 33.644531 122.0625 C 30.140625 124.636719 26.550781 127.101562 22.871094 129.460938 C 20.027344 131.277344 17.113281 133.046875 14.71875 135.425781 L 14.566406 135.585938 C 14.476562 135.316406 14.433594 135.035156 14.433594 134.75 L 14.105469 100.363281 C 14.101562 99.824219 14.234375 99.324219 14.503906 98.859375 C 18.375 92.175781 22.25 85.515625 26.125 78.882812 C 26.394531 78.417969 26.527344 77.917969 26.523438 77.378906 C 26.523438 73.125 26.523438 68.871094 26.523438 64.621094 C 26.519531 64.058594 26.664062 63.539062 26.960938 63.0625 C 31.136719 56.304688 35.378906 49.570312 39.679688 42.863281 C 45.46875 33.804688 51.34375 24.804688 57.304688 15.859375 C 57.691406 15.265625 58.226562 14.863281 58.90625 14.652344 C 59.320312 15.988281 59.710938 17.34375 60.082031 18.714844 C 60.914062 21.824219 61.621094 25.042969 61.167969 28.222656 Z M 61.167969 28.222656 " fill-opacity="0.3" fill-rule="nonzero"/><path fill="#161616" d="M 123.125 139.988281 C 116.597656 140.1875 109.972656 140.328125 103.253906 140.410156 C 72.496094 140.753906 43.695312 139.652344 17.132812 137.652344 C 16.53125 137.605469 15.996094 137.394531 15.523438 137.019531 C 15.050781 136.640625 14.726562 136.164062 14.550781 135.585938 L 14.707031 135.425781 C 17.097656 133.046875 20.011719 131.277344 22.855469 129.460938 C 26.527344 127.125 30.121094 124.65625 33.636719 122.0625 C 35.714844 120.535156 37.796875 118.933594 39.269531 116.816406 C 40.296875 115.214844 41.128906 113.519531 41.773438 111.730469 C 43.835938 106.5625 45.902344 101.398438 47.972656 96.230469 C 48.851562 94.019531 49.75 91.753906 49.820312 89.375 C 49.8125 87.789062 49.59375 86.234375 49.15625 84.707031 C 52.855469 92.550781 56.121094 100.570312 58.945312 108.765625 C 60.703125 113.984375 62.453125 119.667969 66.902344 122.925781 C 69.269531 124.664062 72.179688 125.523438 74.648438 127.117188 C 76.652344 128.414062 78.332031 130.175781 80.285156 131.5625 C 83.144531 133.59375 86.515625 134.769531 89.878906 135.746094 C 96.621094 137.703125 103.492188 138.941406 110.492188 139.457031 C 114.6875 139.757812 118.917969 139.800781 123.125 139.988281 Z M 123.125 139.988281 " fill-opacity="0.15" fill-rule="nonzero"/><path fill="#161616" d="M 156.492188 54.203125 L 158.539062 53.796875 L 157.09375 46.402344 C 157.03125 45.867188 156.785156 45.4375 156.355469 45.113281 C 156.03125 44.886719 155.140625 44.476562 153.972656 45.535156 L 146.539062 52.285156 L 147.941406 53.832031 L 153.777344 48.53125 C 152.703125 52.246094 151.722656 55.992188 150.832031 59.761719 C 148.140625 62.105469 145.671875 64.660156 143.421875 67.429688 L 145.046875 68.75 C 146.589844 66.84375 148.246094 65.039062 150.015625 63.339844 C 149.074219 67.59375 148.253906 71.867188 147.550781 76.164062 L 141.679688 81.675781 L 143.109375 83.179688 L 147.023438 79.507812 C 146.355469 84.054688 145.808594 88.613281 145.386719 93.183594 L 147.464844 93.371094 C 147.882812 88.800781 148.429688 84.246094 149.105469 79.703125 L 151.691406 84.894531 L 153.558594 83.960938 L 149.667969 76.144531 C 150.355469 72.007812 151.148438 67.894531 152.050781 63.792969 C 152.976562 66.097656 153.507812 68.488281 153.648438 70.964844 L 155.730469 70.851562 C 155.519531 67.179688 154.546875 63.722656 152.804688 60.484375 C 153.65625 56.867188 154.59375 53.269531 155.621094 49.699219 Z M 156.492188 54.203125 " fill-opacity="1" fill-rule="nonzero"/><path fill="#161616" d="M 97.625 38.074219 L 99.371094 39.214844 L 103.476562 32.886719 C 103.800781 32.457031 103.921875 31.980469 103.84375 31.449219 C 103.761719 31.058594 103.40625 30.140625 101.839844 30.089844 L 91.828125 29.765625 L 91.761719 31.851562 L 99.636719 32.109375 C 96.300781 34.027344 92.996094 36.03125 89.722656 38.125 C 86.164062 37.929688 82.609375 38.046875 79.070312 38.476562 L 79.320312 40.546875 C 81.753906 40.253906 84.195312 40.113281 86.644531 40.125 C 83.019531 42.527344 79.460938 45.035156 75.964844 47.644531 L 67.917969 47.511719 L 67.882812 49.601562 L 73.257812 49.6875 C 69.609375 52.480469 66.050781 55.375 62.570312 58.375 L 63.933594 59.957031 C 67.40625 56.949219 70.964844 54.058594 74.613281 51.28125 L 72.859375 56.796875 L 74.863281 57.425781 L 77.503906 49.101562 C 80.871094 46.605469 84.304688 44.203125 87.800781 41.890625 C 86.863281 44.1875 85.582031 46.273438 83.960938 48.148438 L 85.539062 49.519531 C 87.929688 46.726562 89.617188 43.558594 90.601562 40.015625 C 93.730469 38.011719 96.902344 36.082031 100.113281 34.226562 Z M 97.625 38.074219 " fill-opacity="1" fill-rule="nonzero"/><path fill="#161616" d="M 171.78125 120.691406 C 172.703125 116.863281 173.347656 112.992188 173.71875 109.074219 C 176.640625 106.320312 179.289062 103.324219 181.667969 100.085938 C 181.621094 100.46875 181.550781 100.863281 181.484375 101.25 L 181.449219 101.453125 C 180.957031 104.292969 180.855469 107.148438 181.140625 110.015625 L 183.21875 109.804688 C 182.953125 107.128906 183.046875 104.464844 183.503906 101.816406 L 183.539062 101.609375 C 183.785156 100.226562 184.085938 98.496094 183.234375 97.019531 L 182.847656 96.351562 L 171.617188 98.898438 L 172.078125 100.9375 L 179.71875 99.203125 C 177.589844 102.074219 175.234375 104.75 172.652344 107.222656 L 161.769531 109.550781 L 162.203125 111.589844 L 169.613281 110.011719 C 164.730469 114.15625 159.558594 117.902344 154.09375 121.246094 L 155.199219 123.015625 C 160.90625 119.523438 166.292969 115.597656 171.367188 111.234375 C 170.992188 114.261719 170.445312 117.257812 169.734375 120.226562 Z M 171.78125 120.691406 " fill-opacity="1" fill-rule="nonzero"/><path fill="#161616" d="M 138.9375 54.410156 C 138.875 51.191406 138.527344 48 137.902344 44.839844 C 135.195312 46.53125 132.664062 48.445312 130.304688 50.589844 C 131.648438 50.171875 133.015625 49.871094 134.410156 49.6875 C 131.195312 56.191406 128.777344 62.976562 127.152344 70.042969 C 125.527344 77.113281 124.742188 84.277344 124.796875 91.53125 L 126.886719 91.53125 C 126.769531 77.53125 130.390625 63.03125 136.609375 50.429688 C 137.484375 51.660156 138.242188 53.277344 138.9375 54.410156 Z M 138.9375 54.410156 " fill-opacity="1" fill-rule="nonzero"/><path fill="#161616" d="M 119.742188 72.492188 C 119.695312 72.339844 119.625 72.199219 119.523438 72.070312 C 119.421875 71.945312 119.300781 71.84375 119.164062 71.761719 C 119.023438 71.683594 118.871094 71.632812 118.710938 71.613281 C 118.550781 71.59375 118.394531 71.605469 118.238281 71.648438 C 116.269531 72.136719 114.308594 72.652344 112.355469 73.195312 C 110.402344 73.738281 108.464844 74.296875 106.542969 74.875 L 105.300781 75.25 C 105.234375 73.746094 105.175781 72.292969 105.105469 70.808594 C 105.046875 69.476562 104.984375 68.136719 104.921875 66.800781 C 105.324219 66.703125 105.714844 66.554688 106.085938 66.363281 C 106.457031 66.171875 106.796875 65.9375 107.113281 65.660156 C 107.425781 65.382812 107.703125 65.074219 107.941406 64.730469 C 108.179688 64.386719 108.371094 64.019531 108.523438 63.628906 C 108.671875 63.238281 108.773438 62.835938 108.824219 62.421875 C 108.875 62.007812 108.875 61.59375 108.828125 61.175781 C 108.777344 60.761719 108.679688 60.359375 108.53125 59.96875 C 108.382812 59.574219 108.191406 59.207031 107.957031 58.863281 C 107.71875 58.519531 107.445312 58.207031 107.132812 57.929688 C 106.820312 57.652344 106.480469 57.417969 106.109375 57.222656 C 105.738281 57.027344 105.351562 56.878906 104.945312 56.78125 C 104.539062 56.679688 104.128906 56.628906 103.710938 56.628906 C 103.292969 56.628906 102.882812 56.679688 102.476562 56.78125 C 102.070312 56.878906 101.683594 57.027344 101.3125 57.222656 C 100.941406 57.417969 100.601562 57.652344 100.289062 57.929688 C 99.976562 58.207031 99.703125 58.519531 99.464844 58.863281 C 99.230469 59.207031 99.039062 59.574219 98.890625 59.96875 C 98.742188 60.359375 98.644531 60.761719 98.59375 61.175781 C 98.546875 61.59375 98.546875 62.007812 98.597656 62.421875 C 98.648438 62.835938 98.75 63.238281 98.898438 63.628906 C 99.046875 64.019531 99.242188 64.386719 99.480469 64.730469 C 99.71875 65.074219 99.996094 65.382812 100.308594 65.660156 C 100.625 65.9375 100.964844 66.171875 101.335938 66.363281 C 101.707031 66.554688 102.09375 66.703125 102.5 66.800781 C 102.648438 69.867188 102.785156 72.933594 102.914062 76.003906 L 100.765625 76.695312 C 98.847656 77.324219 96.9375 77.972656 95.03125 78.644531 C 93.125 79.316406 91.214844 80.011719 89.324219 80.730469 L 88.613281 81 C 88.300781 81.097656 88.058594 81.28125 87.886719 81.554688 C 87.804688 81.695312 87.753906 81.84375 87.734375 82.003906 C 87.710938 82.164062 87.722656 82.320312 87.761719 82.476562 C 87.804688 82.628906 87.871094 82.773438 87.96875 82.902344 C 88.066406 83.027344 88.183594 83.132812 88.320312 83.214844 C 88.617188 83.382812 88.925781 83.417969 89.25 83.320312 C 91.140625 82.597656 93.042969 81.898438 94.957031 81.214844 C 96.867188 80.535156 98.777344 79.878906 100.679688 79.25 L 103.03125 78.488281 C 103.195312 82.675781 103.339844 86.863281 103.46875 91.050781 C 103.539062 93.386719 103.601562 95.738281 103.660156 98.101562 C 103.085938 98.265625 102.53125 98.480469 101.996094 98.746094 C 100.84375 99.339844 99.789062 100.070312 98.835938 100.949219 C 97.960938 101.722656 97.144531 102.558594 96.394531 103.453125 C 94.785156 105.363281 93.496094 107.46875 92.523438 109.769531 C 92.394531 110.082031 92.265625 110.390625 92.148438 110.703125 C 92.058594 111.03125 92.097656 111.34375 92.265625 111.640625 C 92.433594 111.917969 92.675781 112.105469 92.988281 112.195312 C 93.316406 112.285156 93.628906 112.242188 93.917969 112.070312 C 94.191406 111.894531 94.378906 111.652344 94.480469 111.347656 C 94.554688 111.148438 94.636719 110.949219 94.714844 110.75 C 95.484375 108.960938 96.457031 107.289062 97.640625 105.738281 C 98.71875 104.347656 99.941406 103.105469 101.316406 102.003906 C 102.007812 101.476562 102.75 101.03125 103.542969 100.671875 C 104 100.488281 104.46875 100.355469 104.953125 100.269531 C 105.320312 100.234375 105.6875 100.234375 106.054688 100.269531 C 106.375 100.324219 106.683594 100.410156 106.984375 100.527344 C 107.316406 100.679688 107.628906 100.867188 107.925781 101.082031 C 108.328125 101.421875 108.695312 101.796875 109.019531 102.210938 C 109.804688 103.316406 110.472656 104.484375 111.023438 105.71875 L 113.398438 110.667969 C 113.851562 111.609375 114.304688 112.550781 114.753906 113.492188 C 114.835938 113.632812 114.941406 113.75 115.066406 113.847656 C 115.195312 113.945312 115.335938 114.011719 115.492188 114.054688 C 115.648438 114.09375 115.804688 114.105469 115.964844 114.082031 C 116.121094 114.0625 116.273438 114.011719 116.410156 113.929688 C 116.691406 113.761719 116.878906 113.519531 116.964844 113.203125 C 117.039062 112.875 117 112.566406 116.839844 112.269531 L 113.160156 104.605469 C 112.71875 103.632812 112.214844 102.6875 111.660156 101.773438 C 111.082031 100.820312 110.371094 99.984375 109.515625 99.269531 C 109.25 99.054688 108.972656 98.855469 108.679688 98.675781 C 108.394531 98.511719 108.097656 98.371094 107.789062 98.25 C 107.238281 98.027344 106.664062 97.890625 106.070312 97.84375 C 105.964844 93.5 105.835938 89.167969 105.6875 84.839844 C 105.605469 82.46875 105.515625 80.097656 105.421875 77.726562 L 106.476562 77.40625 C 108.40625 76.8125 110.34375 76.25 112.285156 75.710938 C 114.226562 75.171875 116.1875 74.652344 118.164062 74.144531 L 118.898438 73.957031 C 119.050781 73.914062 119.1875 73.84375 119.308594 73.746094 C 119.433594 73.648438 119.535156 73.53125 119.613281 73.394531 C 119.691406 73.257812 119.742188 73.113281 119.761719 72.957031 C 119.785156 72.800781 119.777344 72.648438 119.742188 72.492188 Z M 119.742188 72.492188 " fill-opacity="1" fill-rule="nonzero"/></svg>