<svg xmlns="http://www.w3.org/2000/svg" xmlns:xlink="http://www.w3.org/1999/xlink" width="200" zoomAndPan="magnify" viewBox="0 0 150 149.999998" height="200" preserveAspectRatio="xMidYMid meet" version="1.0"><defs><clipPath id="973079dc9b"><path d="M 17.710938 17.710938 L 132.460938 17.710938 L 132.460938 132.460938 L 17.710938 132.460938 Z M 17.710938 17.710938 " clip-rule="nonzero"/></clipPath></defs><g clip-path="url(#973079dc9b)"><path fill="#000000" d="M 75.085938 17.710938 C 43.394531 17.710938 17.710938 43.394531 17.710938 75.085938 C 17.710938 106.78125 43.394531 132.460938 75.085938 132.460938 C 106.78125 132.460938 132.460938 106.78125 132.460938 75.085938 C 132.414062 43.394531 106.730469 17.710938 75.085938 17.710938 Z M 105.984375 52.933594 L 94.808594 105.339844 C 94.261719 107.972656 91.183594 109.117188 89.046875 107.527344 L 62.519531 87.753906 L 91.828125 61.277344 C 91.828125 61.277344 93.816406 59.636719 93.269531 59.140625 C 92.671875 58.546875 90.488281 59.835938 89.394531 60.582031 C 88.25 61.425781 53.480469 83.382812 53.480469 83.382812 L 35.84375 77.917969 C 33.855469 77.324219 33.855469 74.589844 36.738281 73.398438 L 101.515625 48.460938 C 104.347656 47.070312 106.582031 50.25 105.984375 52.933594 Z M 105.984375 52.933594 " fill-opacity="1" fill-rule="nonzero"/></g></svg>