<svg xmlns="http://www.w3.org/2000/svg" xmlns:xlink="http://www.w3.org/1999/xlink" width="200" zoomAndPan="magnify" viewBox="0 0 150 149.999998" height="200" preserveAspectRatio="xMidYMid meet" version="1.0"><defs><clipPath id="946367d2d3"><path d="M 16.355469 16.355469 L 133.355469 16.355469 L 133.355469 133.355469 L 16.355469 133.355469 Z M 16.355469 16.355469 " clip-rule="nonzero"/></clipPath></defs><g clip-path="url(#946367d2d3)"><path fill="#000000" d="M 116.222656 33.492188 C 105.171875 22.441406 90.480469 16.355469 74.855469 16.355469 C 59.230469 16.355469 44.539062 22.441406 33.492188 33.492188 C 22.441406 44.539062 16.355469 59.230469 16.355469 74.855469 C 16.355469 90.480469 22.441406 105.171875 33.492188 116.222656 C 44.539062 127.269531 59.230469 133.355469 74.855469 133.355469 C 90.480469 133.355469 105.171875 127.269531 116.222656 116.222656 C 127.269531 105.171875 133.355469 90.480469 133.355469 74.855469 C 133.355469 59.230469 127.269531 44.539062 116.222656 33.492188 Z M 22.828125 74.855469 C 22.828125 68.339844 24.035156 62.101562 26.230469 56.351562 L 47.273438 56.351562 C 46.328125 62.238281 45.835938 68.46875 45.835938 74.855469 C 45.835938 81.027344 46.296875 87.058594 47.179688 92.769531 L 26.003906 92.769531 C 23.949219 87.183594 22.828125 81.148438 22.828125 74.855469 Z M 52.308594 74.855469 C 52.308594 68.429688 52.828125 62.1875 53.824219 56.351562 L 71.621094 56.351562 L 71.621094 92.769531 L 53.726562 92.769531 C 52.792969 87.105469 52.308594 81.066406 52.308594 74.855469 Z M 90.15625 37.144531 C 91.929688 40.949219 93.402344 45.238281 94.546875 49.878906 L 78.089844 49.878906 L 78.089844 23.425781 C 82.476562 25.035156 86.746094 29.835938 90.15625 37.144531 Z M 71.621094 23.425781 L 71.621094 49.878906 L 55.167969 49.878906 C 56.3125 45.238281 57.78125 40.949219 59.554688 37.144531 C 62.964844 29.835938 67.234375 25.035156 71.621094 23.425781 Z M 71.621094 99.238281 L 71.621094 126.285156 C 67.234375 124.679688 62.964844 119.875 59.554688 112.566406 C 57.707031 108.601562 56.1875 104.109375 55.023438 99.238281 Z M 78.089844 126.285156 L 78.089844 99.238281 L 94.6875 99.238281 C 93.527344 104.109375 92.007812 108.601562 90.15625 112.566406 C 86.746094 119.875 82.476562 124.679688 78.089844 126.285156 Z M 78.089844 92.769531 L 78.089844 56.351562 L 95.886719 56.351562 C 96.882812 62.1875 97.40625 68.429688 97.40625 74.855469 C 97.40625 81.066406 96.917969 87.105469 95.988281 92.769531 Z M 102.441406 56.351562 L 123.480469 56.351562 C 125.679688 62.101562 126.886719 68.339844 126.886719 74.855469 C 126.886719 81.148438 125.761719 87.183594 123.707031 92.769531 L 102.535156 92.769531 C 103.417969 87.058594 103.875 81.027344 103.875 74.855469 C 103.875 68.46875 103.382812 62.238281 102.441406 56.351562 Z M 120.488281 49.878906 L 101.1875 49.878906 C 99.898438 44.230469 98.164062 39.003906 96.019531 34.410156 C 94.359375 30.847656 92.5 27.777344 90.484375 25.226562 C 103.359375 29.289062 114.085938 38.234375 120.488281 49.878906 Z M 59.226562 25.226562 C 57.214844 27.777344 55.355469 30.847656 53.691406 34.410156 C 51.546875 39.003906 49.8125 44.230469 48.523438 49.878906 L 29.226562 49.878906 C 35.625 38.234375 46.351562 29.289062 59.226562 25.226562 Z M 28.90625 99.238281 L 48.390625 99.238281 C 49.691406 105.117188 51.472656 110.546875 53.691406 115.300781 C 55.355469 118.867188 57.214844 121.9375 59.226562 124.484375 C 46.136719 120.355469 35.265625 111.175781 28.90625 99.238281 Z M 90.484375 124.484375 C 92.5 121.9375 94.359375 118.867188 96.019531 115.300781 C 98.238281 110.546875 100.019531 105.117188 101.324219 99.238281 L 120.804688 99.238281 C 114.449219 111.175781 103.578125 120.355469 90.484375 124.484375 Z M 90.484375 124.484375 " fill-opacity="1" fill-rule="nonzero"/></g></svg>